<?xml version="1.0" encoding="UTF-8" standalone="no"?>
<svg width="73px" height="91px" viewBox="0 0 73 91" version="1.1" xmlns="http://www.w3.org/2000/svg" xmlns:xlink="http://www.w3.org/1999/xlink">
    <!-- Generator: Sketch 39.1 (31720) - http://www.bohemiancoding.com/sketch -->
    <title>Canada@1x</title>
    <desc>Created with Sketch.</desc>
    <defs>
        <circle id="path-1" cx="36.9965" cy="36.963" r="27.8649998"></circle>
        <mask id="mask-2" maskContentUnits="userSpaceOnUse" maskUnits="objectBoundingBox" x="0" y="0" width="55.7299995" height="55.7299995" fill="white">
            <use xlink:href="#path-1"></use>
        </mask>
    </defs>
    <g id="Page-1" stroke="none" stroke-width="1" fill="none" fill-rule="evenodd">
        <g id="Canada" transform="translate(-0.242188, -0.453125)">
            <path d="M37.001,0.933 C17.14,0.933 0.98,17.092 0.979,36.954 C0.979,45.856 4.615,54.652 11.493,62.388 L37.002,91.068 L62.51,62.385 C69.388,54.65 73.023,45.855 73.023,36.954 C73.021,17.091 56.862,0.933 37.001,0.933 L37.001,0.933 Z M61.123,61.152 L37.001,88.275 L12.879,61.152 C6.307,53.762 2.833,45.394 2.833,36.953 C2.835,18.114 18.162,2.787 37.001,2.787 C55.839,2.787 71.167,18.114 71.167,36.954 C71.167,45.395 67.692,53.762 61.123,61.152 L61.123,61.152 Z" id="Shape" fill="#10AFA5" opacity="0.599999964"></path>
            <path d="M61.123,61.152 L37.001,88.275 L12.879,61.152 C6.307,53.762 2.833,45.394 2.833,36.953 C2.835,18.114 18.162,2.787 37.001,2.787 C55.839,2.787 71.167,18.114 71.167,36.954 C71.167,45.395 67.692,53.762 61.123,61.152 L61.123,61.152 Z" id="Path" fill="#60CFC8" opacity="0.599999964"></path>
            <use id="Oval" stroke="#70CFC9" mask="url(#mask-2)" stroke-width="4" fill="#FFFFFF" xlink:href="#path-1"></use>
            <path d="M10.99,36.954 C10.99,29.934 13.797,23.566 18.333,18.882 L18.333,55.044 C13.603,50.165 10.99,43.764 10.99,36.954 L10.99,36.954 Z" id="Path-Copy-2" fill="#FF4D4D"></path>
            <path d="M51.089,36.503 L48.722,35.409 L50.041,30.485 L45.596,31.236 L44.863,28.501 L41.968,31.397 L42.947,24.647 L39.801,26.462 L36.915,21.465 L33.936,26.627 L30.659,24.733 L31.833,31.299 L29.139,28.602 L28.406,31.338 L23.96,30.587 L25.279,35.51 L22.904,36.608 L29.904,42.751 L28.598,45.633 L30.232,45.436 C32.031,45.221 33.854,45.091 35.666,45.05 L35.666,51.509 L38.318,51.509 L38.318,45.05 C40.122,45.093 41.944,45.222 43.752,45.436 L45.634,45.66 L43.942,42.851 L51.089,36.503 L51.089,36.503 Z" id="Path" fill="#FF4D4D"></path>
            <path d="M42.477,41.67 C41.983,42.11 41.843,42.818 42.117,43.406 C40.581,43.273 39.041,43.198 37.518,43.184 L37.518,43.176 L37.009,43.18 L36.462,43.176 L36.462,43.184 C34.858,43.198 33.24,43.278 31.633,43.427 L31.704,43.268 C31.975,42.67 31.824,41.977 31.331,41.54 L26.269,37.096 C26.966,36.774 27.328,36.001 27.127,35.257 L26.496,32.9 L28.338,33.212 C29.109,33.344 29.837,32.909 30.092,32.187 L31.143,33.238 C31.634,33.73 32.377,33.842 32.99,33.52 C33.602,33.199 33.933,32.525 33.813,31.844 L33.186,28.339 L33.248,28.375 C34,28.808 34.968,28.549 35.403,27.796 L36.915,25.178 L38.333,27.633 C38.544,27.997 38.885,28.258 39.292,28.367 C39.698,28.474 40.125,28.419 40.488,28.208 L40.562,28.165 L40.013,31.958 C39.914,32.632 40.26,33.29 40.867,33.596 C41.476,33.9 42.21,33.783 42.69,33.301 L43.906,32.084 C44.16,32.804 44.885,33.241 45.656,33.11 L47.502,32.798 L46.87,35.155 C46.671,35.9 47.034,36.674 47.73,36.996 L47.737,36.998 L42.477,41.67 L42.477,41.67 Z" id="Path-Copy-3" fill="#FF4D4D"></path>
            <path d="M55.609,55.106 L55.609,18.819 C60.18,23.508 63.01,29.903 63.01,36.954 C63.011,43.792 60.377,50.221 55.609,55.106 L55.609,55.106 Z" id="Path-Copy" fill="#FF4D4D"></path>
        </g>
    </g>
</svg>