<?xml version="1.0" encoding="UTF-8" standalone="no"?>
<svg width="180px" height="176px" viewBox="0 0 180 176" version="1.1" xmlns="http://www.w3.org/2000/svg" xmlns:xlink="http://www.w3.org/1999/xlink">
    <!-- Generator: Sketch 39.1 (31720) - http://www.bohemiancoding.com/sketch -->
    <title>Gift Icon@1x</title>
    <desc>Created with Sketch.</desc>
    <defs></defs>
    <g id="Page-1" stroke="none" stroke-width="1" fill="none" fill-rule="evenodd">
        <path d="M153.882353,10.4094718 C150.588235,2.64476596 144.941176,-1.11993992 138.588235,0.291824785 C137.647059,0.527118903 136.705882,0.76241302 135.764706,0.76241302 C130.352941,1.93888361 124,3.1153542 117.882353,6.40947184 C112.705882,9.23300126 105.176471,16.0565307 101.411765,20.2918248 C100.705882,20.0565307 100,19.8212365 99.2941176,19.8212365 L79.0588235,19.8212365 C78.3529412,19.8212365 77.8823529,20.0565307 77.1764706,20.0565307 C73.1764706,15.8212365 65.8823529,8.99770714 60.7058824,6.40947184 C54.5882353,3.1153542 48.4705882,1.93888361 42.8235294,0.76241302 C41.8823529,0.527118903 40.9411765,0.291824785 40,0.291824785 C33.8823529,-1.11993992 28.2352941,2.88006008 24.7058824,10.4094718 C21.8823529,16.9977071 21.4117647,25.2330013 23.7647059,31.3506483 L0,31.3506483 L0,83.5859424 L6.82352941,83.5859424 L6.82352941,175.585942 L76.7058824,175.585942 L103.294118,175.585942 L173.176471,175.585942 L173.176471,83.8212365 L180,83.8212365 L180,31.3506483 L154.588235,31.3506483 C157.176471,25.2330013 156.470588,16.9977071 153.882353,10.4094718 L153.882353,10.4094718 Z M120.470588,11.3506483 C125.882353,8.5271189 131.529412,7.35064831 136.705882,6.40947184 C137.647059,6.17417773 138.588235,5.93888361 139.529412,5.70358949 C144.470588,4.76241302 147.294118,10.1741777 148.470588,12.5271189 C151.529412,19.3506483 151.529412,29.2330013 146.823529,32.5271189 C142.117647,35.8212365 136.470588,39.1153542 129.882353,40.762413 C124,42.1741777 116.235294,41.9388836 106.823529,40.0565307 L105.176471,28.2918248 C115.294118,27.3506483 141.176471,23.8212365 141.176471,12.5271189 L135.529412,12.5271189 C135.529412,16.762413 121.176471,20.9977071 106.823529,22.644766 C110.823529,18.644766 116.705882,13.4682954 120.470588,11.3506483 L120.470588,11.3506483 Z M103.058824,100.997707 L167.529412,100.997707 L167.529412,116.291825 L103.058824,116.291825 L103.058824,100.997707 L103.058824,100.997707 Z M72.7058824,78.1741777 L88.7058824,57.2330013 L105.647059,78.1741777 L72.7058824,78.1741777 L72.7058824,78.1741777 Z M12.4705882,100.997707 L76.7058824,100.997707 L76.7058824,116.291825 L12.4705882,116.291825 L12.4705882,100.997707 L12.4705882,100.997707 Z M73.8823529,24.2918248 L73.8823529,24.2918248 L73.8823529,24.2918248 L73.8823529,24.762413 L73.8823529,24.2918248 L73.8823529,24.2918248 Z M76.7058824,46.644766 L80.4705882,46.644766 L85.4117647,52.762413 L70.8235294,71.8212365 L67.7647059,66.1741777 L61.6470588,64.762413 L75.5294118,46.644766 L76.7058824,46.644766 L76.7058824,46.644766 Z M108,71.8212365 L87.5294118,46.644766 L100.941176,46.644766 L116.705882,64.762413 L110.823529,66.1741777 L108,71.8212365 L108,71.8212365 Z M79.2941176,25.4682954 L99.0588235,25.4682954 L101.411765,40.9977071 L77.1764706,40.9977071 L79.2941176,25.4682954 L79.2941176,25.4682954 Z M30.1176471,12.5271189 C31.0588235,10.1741777 34.1176471,4.5271189 39.0588235,5.70358949 C40,5.93888361 40.9411765,6.17417773 41.8823529,6.40947184 C47.0588235,7.35064831 52.7058824,8.5271189 58.1176471,11.3506483 C62.1176471,13.4682954 68.2352941,18.8800601 72.2352941,22.8800601 C57.4117647,21.4682954 41.6470588,16.9977071 41.6470588,12.762413 L36,12.762413 C36,24.762413 64,28.0565307 73.1764706,28.762413 L71.5294118,40.5271189 C62.3529412,42.4094718 54.5882353,42.644766 48.7058824,41.2330013 C42.1176471,39.5859424 36.4705882,36.0565307 31.7647059,32.9977071 C31.5294118,32.762413 31.2941176,32.762413 31.0588235,32.5271189 L31.0588235,31.8212365 L30.3529412,31.8212365 C27.2941176,27.3506483 27.5294118,18.8800601 30.1176471,12.5271189 L30.1176471,12.5271189 Z M5.64705882,36.9977071 L28.4705882,36.9977071 L28.7058824,37.2330013 C33.6470588,40.762413 40,44.5271189 47.2941176,46.4094718 C50.3529412,47.1153542 53.6470588,47.5859424 57.4117647,47.5859424 C60.7058824,47.5859424 64.4705882,47.1153542 68.4705882,46.644766 L52,68.2918248 L64,71.3506483 L67.5294118,78.4094718 L5.64705882,78.4094718 L5.64705882,36.9977071 L5.64705882,36.9977071 Z M76.7058824,83.8212365 L76.7058824,95.5859424 L12.4705882,95.5859424 L12.4705882,83.8212365 L76.7058824,83.8212365 L76.7058824,83.8212365 Z M12.4705882,170.174178 L12.4705882,121.938884 L76.7058824,121.938884 L76.7058824,170.174178 L12.4705882,170.174178 L12.4705882,170.174178 Z M82.3529412,170.174178 L82.3529412,83.8212365 L97.6470588,83.8212365 L97.6470588,170.174178 L82.3529412,170.174178 L82.3529412,170.174178 Z M103.058824,170.174178 L103.058824,121.938884 L167.529412,121.938884 L167.529412,170.174178 L103.058824,170.174178 L103.058824,170.174178 Z M167.529412,95.3506483 L103.058824,95.3506483 L103.058824,83.5859424 L167.529412,83.5859424 L167.529412,95.3506483 L167.529412,95.3506483 Z M174.352941,78.1741777 L111.294118,78.1741777 L114.588235,71.1153542 L126.823529,68.0565307 L108,46.1741777 C112.705882,47.1153542 117.176471,47.5859424 121.176471,47.5859424 C124.941176,47.5859424 128.235294,47.1153542 131.294118,46.4094718 C138.823529,44.5271189 144.941176,40.762413 149.882353,37.2330013 L150.117647,36.9977071 L174.117647,36.9977071 L174.117647,78.1741777 L174.352941,78.1741777 Z" id="Gift-Icon" fill="#60CFC8"></path>
    </g>
</svg>