<svg xmlns="http://www.w3.org/2000/svg" xmlns:xlink="http://www.w3.org/1999/xlink" version="1.1" x="0px" y="0px" viewBox="0 0 91 113.75" style="enable-background:new 0 0 91 91;" xml:space="preserve"><g><path d="M73.2,15.3c-1.4-3.3-3.8-4.9-6.5-4.3c-0.4,0.1-0.8,0.2-1.2,0.2c-2.3,0.5-5,1-7.6,2.4c-2.2,1.2-5.4,4.1-7,5.9   c-0.3-0.1-0.6-0.2-0.9-0.2h-8.6c-0.3,0-0.5,0.1-0.8,0.1c-1.7-1.8-4.8-4.7-7-5.8c-2.6-1.4-5.2-1.9-7.6-2.4c-0.4-0.1-0.8-0.2-1.2-0.2   c-2.6-0.6-5,1.1-6.5,4.3c-1.2,2.8-1.4,6.3-0.4,8.9H7.8v22.2h2.9v39.1h29.7h11.3h29.7V46.5h2.9V24.2H73.5   C74.6,21.6,74.3,18.1,73.2,15.3z M59,15.7c2.3-1.2,4.7-1.7,6.9-2.1c0.4-0.1,0.8-0.2,1.2-0.3c2.1-0.4,3.3,1.9,3.8,2.9   c1.3,2.9,1.3,7.1-0.7,8.5c-2,1.4-4.4,2.8-7.2,3.5c-2.5,0.6-5.8,0.5-9.8-0.3l-0.7-5c4.3-0.4,15.3-1.9,15.3-6.7h-2.4   c0,1.8-6.1,3.6-12.2,4.3C54.9,18.8,57.4,16.6,59,15.7z M51.6,53.8H79v6.5H51.6V53.8z M38.7,44.1l6.8-8.9l7.2,8.9H38.7z M13.1,53.8   h27.3v6.5H13.1V53.8z M39.2,21.2L39.2,21.2C39.2,21.2,39.2,21.2,39.2,21.2l0,0.2L39.2,21.2z M40.4,30.7h1.6l2.1,2.6l-6.2,8.1   L36.6,39L34,38.4l5.9-7.7C40.1,30.7,40.2,30.7,40.4,30.7z M53.7,41.4L45,30.7h5.7l6.7,7.7L54.9,39L53.7,41.4z M41.5,21.7l8.4,0   l1,6.6l-10.3,0L41.5,21.7z M20.6,16.2c0.4-1,1.7-3.4,3.8-2.9c0.4,0.1,0.8,0.2,1.2,0.3c2.2,0.4,4.6,0.9,6.9,2.1   c1.7,0.9,4.3,3.2,6,4.9c-6.3-0.6-13-2.5-13-4.3h-2.4c0,5.1,11.9,6.5,15.8,6.8l-0.7,5c-3.9,0.8-7.2,0.9-9.7,0.3   c-2.8-0.7-5.2-2.2-7.2-3.5c-0.1-0.1-0.2-0.1-0.3-0.2v-0.3h-0.3C19.4,22.5,19.5,18.9,20.6,16.2z M10.2,26.6h9.7c0,0,0.1,0.1,0.1,0.1   c2.1,1.5,4.8,3.1,7.9,3.9c1.3,0.3,2.7,0.5,4.3,0.5c1.4,0,3-0.2,4.7-0.4l-7,9.2l5.1,1.3l1.5,3H10.2V26.6z M40.4,46.5v5H13.1v-5H40.4   z M13.1,83.2V62.7h27.3v20.5H13.1z M42.8,83.2V46.5h6.5v36.7H42.8z M51.6,83.2V62.7H79v20.5H51.6z M79,51.4H51.6v-5H79V51.4z    M81.9,44.1H55.1l1.4-3l5.2-1.3l-8-9.3c2,0.4,3.9,0.6,5.6,0.6c1.6,0,3-0.2,4.3-0.5c3.2-0.8,5.8-2.4,7.9-3.9c0,0,0.1-0.1,0.1-0.1   h10.2V44.1z"/></g><text x="0" y="106" fill="#000000" font-size="5px" font-weight="bold" font-family="'Helvetica Neue', Helvetica, Arial-Unicode, Arial, Sans-serif">Created by Korawan.M</text><text x="0" y="111" fill="#000000" font-size="5px" font-weight="bold" font-family="'Helvetica Neue', Helvetica, Arial-Unicode, Arial, Sans-serif">from the Noun Project</text></svg>