<?xml version="1.0" encoding="UTF-8" standalone="no"?>
<svg width="73px" height="91px" viewBox="0 0 73 91" version="1.1" xmlns="http://www.w3.org/2000/svg" xmlns:xlink="http://www.w3.org/1999/xlink">
    <!-- Generator: Sketch 39.1 (31720) - http://www.bohemiancoding.com/sketch -->
    <title>International@1x</title>
    <desc>Created with Sketch.</desc>
    <defs>
        <circle id="path-1" cx="27.8649998" cy="28.8624331" r="27.8649998"></circle>
        <mask id="mask-2" maskContentUnits="userSpaceOnUse" maskUnits="objectBoundingBox" x="0" y="0" width="55.7299995" height="55.7299995" fill="white">
            <use xlink:href="#path-1"></use>
        </mask>
        <circle id="path-3" cx="27.8649998" cy="28.8624331" r="27.8649998"></circle>
        <mask id="mask-4" maskContentUnits="userSpaceOnUse" maskUnits="objectBoundingBox" x="0" y="0" width="55.7299995" height="55.7299995" fill="white">
            <use xlink:href="#path-3"></use>
        </mask>
    </defs>
    <g id="Page-1" stroke="none" stroke-width="1" fill="none" fill-rule="evenodd">
        <g id="International" transform="translate(-0.769531, -0.600567)">
            <path d="M37.001,0.933 C17.14,0.933 0.98,17.092 0.979,36.954 C0.979,45.856 4.615,54.652 11.493,62.388 L37.002,91.068 L62.51,62.385 C69.388,54.65 73.023,45.855 73.023,36.954 C73.021,17.091 56.862,0.933 37.001,0.933 L37.001,0.933 Z M61.123,61.152 L37.001,88.275 L12.879,61.152 C6.307,53.762 2.833,45.394 2.833,36.953 C2.835,18.114 18.162,2.787 37.001,2.787 C55.839,2.787 71.167,18.114 71.167,36.954 C71.167,45.395 67.692,53.762 61.123,61.152 L61.123,61.152 Z" id="Shape" fill="#10AFA5" opacity="0.599999964"></path>
            <path d="M61.123,61.152 L37.001,88.275 L12.879,61.152 C6.307,53.762 2.833,45.394 2.833,36.953 C2.835,18.114 18.162,2.787 37.001,2.787 C55.839,2.787 71.167,18.114 71.167,36.954 C71.167,45.395 67.692,53.762 61.123,61.152 L61.123,61.152 Z" id="Path" fill="#60CFC8" opacity="0.599999964"></path>
            <g id="Globe" transform="translate(9.131500, 8.100567)">
                <use id="Oval-Copy" stroke="#70CFC9" mask="url(#mask-2)" stroke-width="4" fill="#44DAE9" xlink:href="#path-1"></use>
                <polygon id="Shape" fill="#95FFA9" points="37.7358973 24.3558855 38.5289352 25.4704855 38.6816354 25.439834 38.7434957 24.7437663 38.7964392 23.9713485 38.7055993 23.5149198 38.4609446 23.4564033 38.1226635 23.7946844 37.5207795 23.9914113"></polygon>
                <path d="M54.0859646,19.4622342 C54.0463963,19.3507742 54.0018123,19.2421008 53.9600148,19.1311981 C53.8101011,18.731614 53.6518279,18.3337018 53.482966,17.9374615 C53.4071732,17.7591255 53.3297085,17.5830187 53.2500146,17.4069119 C53.1914981,17.277061 53.1396692,17.1460955 53.0783662,17.0168019 C52.9267806,16.6935679 52.7685074,16.3747923 52.6057758,16.0599178 C52.5896141,16.0281517 52.5717805,15.9980575 52.5556188,15.9668487 C52.2981462,15.4736382 52.0272984,14.992131 51.7447473,14.5212125 C51.7269137,14.4911183 51.7096374,14.4604668 51.6912465,14.4303726 C51.3880753,13.9288026 51.069857,13.4411651 50.7393781,12.9652309 C50.7315759,12.9540849 50.7248883,12.9429389 50.7170861,12.9323502 C48.628883,9.93017513 46.015146,7.43681495 43.0631279,5.51858836 C43.0464089,5.50744236 43.0296899,5.49685366 43.0129709,5.48626496 C42.5325784,5.17529157 42.043269,4.87936527 41.5456001,4.59904337 C41.5043599,4.57563677 41.4625624,4.55334477 41.4207649,4.53049547 C40.934242,4.25964767 40.4404742,4.00217508 39.9394615,3.76142148 C39.8904191,3.73690028 39.8402621,3.71516558 39.7912197,3.69175898 C39.284634,3.45211998 38.7724753,3.22529888 38.2525144,3.01631138 C38.220191,3.00349348 38.1878676,2.99234748 38.1555442,2.97952958 C37.6261092,2.76942749 37.0911012,2.57437249 36.5499629,2.39715109 C36.5299001,2.39046349 36.5103946,2.38321859 36.4903318,2.37653099 C35.9291307,2.19373659 35.3623566,2.03044769 34.7900095,1.88387779 C34.7710613,1.87886209 34.7532277,1.87217449 34.7337222,1.86771609 C34.7337222,1.86771609 34.7331649,1.86827339 34.7331649,1.86883069 C32.4956054,1.2970409 30.1816959,1 27.8460516,1 C27.6788616,1 27.510557,1.0105887 27.3428097,1.0133752 C27.2330216,1.0150471 27.1226762,1.0189482 27.0134454,1.022292 C26.0777387,1.0507143 25.1409174,1.1265071 24.2035388,1.250785 C24.0647711,1.2691759 23.9265607,1.2864522 23.7883503,1.3070723 C23.5253047,1.3460833 23.2622591,1.3884381 22.9997708,1.4352513 C22.8164191,1.4675747 22.6347393,1.5043565 22.4530595,1.540581 C22.1225806,1.6063424 21.7921017,1.67711949 21.4627374,1.75514149 C21.179629,1.82201749 20.8976352,1.89112269 20.6178706,1.96635819 C20.4367481,2.01540059 20.2556256,2.06834409 20.0745031,2.12128759 C19.7858217,2.20543989 19.4993695,2.29460789 19.2145892,2.38767699 C19.0774934,2.43281829 18.9403976,2.47517309 18.8033018,2.52254359 C18.3814257,2.66799889 17.9640081,2.82348559 17.5504915,2.98788908 C17.4590943,3.02467088 17.3682544,3.06423918 17.2762999,3.10157828 C16.9129403,3.25093468 16.5534818,3.40809328 16.1973671,3.57249678 C16.1371787,3.59980448 16.076433,3.62321108 16.0162446,3.65163338 C15.9783482,3.66946698 15.9421237,3.68952978 15.9042273,3.70792068 C15.5196903,3.89127238 15.1379398,4.07963977 14.7623196,4.28026777 C14.6898706,4.31872147 14.6202081,4.36051897 14.5483164,4.39952997 C14.2601923,4.55613127 13.9748547,4.71719097 13.6923036,4.88438097 C13.5206552,4.98580957 13.3517933,5.09002467 13.1829314,5.19423977 C13.0146268,5.29901216 12.8468795,5.40489916 12.6813614,5.51301536 C12.4824053,5.64230896 12.2840065,5.77160256 12.0889515,5.90535456 C11.9958824,5.96944406 11.9050425,6.03576276 11.8125307,6.10096686 C11.0378837,6.64600625 10.297232,7.22615555 9.59224752,7.83807094 C9.54376242,7.88042574 9.49472002,7.92222324 9.44679222,7.96457804 C9.20715322,8.17579474 8.97085803,8.38979794 8.73957853,8.60770224 C8.71115623,8.63445264 8.68329123,8.66231764 8.65486893,8.68906804 C7.93595193,9.37343243 7.25883244,10.0917921 6.62351045,10.8408033 C6.57112425,10.9026636 6.51818075,10.962852 6.46635185,11.0252696 C6.29247425,11.2342571 6.12361235,11.4454738 5.95586505,11.6589197 C5.87059815,11.7675932 5.78533125,11.8773813 5.70173625,11.9877267 C5.55126525,12.1850109 5.40302346,12.3828524 5.25868276,12.5840377 C5.15836876,12.7233627 5.06139856,12.8654742 4.96331376,13.0070284 C4.83569206,13.1914947 4.70695576,13.3748464 4.58379246,13.5620992 C4.37759146,13.8753018 4.17752077,14.1929628 3.98358037,14.5161968 C3.90165727,14.6527353 3.82530717,14.7920603 3.74617057,14.9302707 C3.61854887,15.1515188 3.49148447,15.3727669 3.36943577,15.5984734 C3.28806997,15.7495017 3.21004797,15.9010873 3.13146867,16.0532302 C3.01833678,16.2716918 2.90743408,16.4918253 2.79931788,16.714188 C2.72575428,16.8668882 2.65274798,17.0195884 2.58197088,17.1739605 C2.47496928,17.4063546 2.37131148,17.6409779 2.26988288,17.8767158 C2.20913718,18.0210565 2.14671958,18.1648399 2.08708848,18.3097379 C2.06479648,18.363796 2.04083258,18.4161822 2.01854058,18.4702403 C2.02188438,18.4663392 2.02578548,18.4618808 2.02968658,18.4579797 C1.15695479,20.6258766 0.555628095,22.9002179 0.246326598,25.2263881 L0.245211998,25.2263881 C0.233508698,25.3133269 0.229050298,25.4002657 0.218461598,25.4872045 C0.167189999,25.9018357 0.122605999,26.3181388 0.0897252993,26.7355565 C0.0802511993,26.855376 0.0769073994,26.9746382 0.0691051994,27.0944577 C0.0434693996,27.4890261 0.0234065998,27.8841518 0.0144897999,28.2809494 C0.0122605999,28.393524 0.0139324999,28.5060986 0.0128178999,28.6186732 C0.00891679993,29.0221584 0.0122605999,29.4256436 0.0256357998,29.8302434 C0.0289795998,29.9327866 0.0351098997,30.0347725 0.0395682997,30.1373157 C0.0579591995,30.5508323 0.0852668993,30.9637916 0.122605999,31.3784228 C0.130965499,31.4709345 0.140439599,31.562889 0.149913699,31.6554008 C0.191711198,32.0739331 0.243540098,32.4919081 0.304843097,32.9098831 C0.317660997,32.9984938 0.331036197,33.0876618 0.344968697,33.1768298 C0.409615497,33.5892318 0.484293696,34.0010765 0.567888695,34.4123639 C0.587394195,34.5071049 0.605785095,34.6018459 0.625847895,34.6960296 C0.710000194,35.0889261 0.804741193,35.4812653 0.906727093,35.8724899 C0.935706692,35.9839499 0.963014392,36.0954099 0.993665892,36.2063126 C1.09175069,36.5652138 1.20042419,36.9218858 1.31355609,37.2785578 C1.35814009,37.4195547 1.40049489,37.5616662 1.44786539,37.7021058 C1.55263779,38.0141938 1.66744159,38.3234953 1.78391729,38.6339114 C1.85079328,38.8116901 1.91432548,38.9911407 1.98454528,39.1672475 C2.09098958,39.4341942 2.20746528,39.6989117 2.32282638,39.9641865 C2.41366628,40.173174 2.50060508,40.3832761 2.59646068,40.5894771 C2.61540888,40.6307173 2.63157058,40.6730721 2.65107608,40.7148696 C2.82160988,41.0776719 3.00050318,41.4337866 3.18496947,41.7854429 C3.22342317,41.8595638 3.26466337,41.9325701 3.30367437,42.0061337 C3.50764617,42.3878842 3.71886287,42.7623898 3.93788177,43.1313224 C3.96296027,43.1731199 3.98692417,43.216032 4.01200267,43.2583868 C4.27393366,43.6930807 4.54645336,44.1183006 4.82844716,44.5346037 C4.82900446,44.535161 4.82900446,44.5357183 4.82956176,44.5362756 C10.0893591,52.2844175 18.8211354,56.7299995 27.883948,56.7299995 C31.8530385,56.7299995 35.8839894,55.8784451 39.713755,54.0783662 C52.8314823,47.9140709 58.8976927,32.8313038 54.0859646,19.4622342 L54.0859646,19.4622342 Z M39.2394927,53.0696532 C35.6443504,54.7588295 31.8240589,55.6153996 27.883948,55.6153996 C19.6743617,55.6153996 11.9841791,51.7973373 6.96959374,45.5388583 C6.89825934,45.3510482 6.82692494,45.1637954 6.75559054,44.9759853 C7.06266284,45.0127671 7.37029244,45.0489916 7.67680744,45.0857734 C7.84511204,45.0339445 8.01341663,44.9832302 8.18116393,44.9319586 C8.23968043,44.5669271 8.29819693,44.200781 8.35671343,43.8346349 C8.31268673,43.3965972 8.26921733,42.9574448 8.22519063,42.5188497 C8.14438213,42.3070757 8.06413093,42.0947444 7.98332243,41.8824131 C8.09311053,41.8094068 8.20345593,41.7364005 8.31268673,41.6628369 C8.36395833,41.4577505 8.41522993,41.2532214 8.46594423,41.048135 C8.62700393,40.9389042 8.78806363,40.8285588 8.94856603,40.719328 C8.97085803,40.3464943 8.99259273,39.9731033 9.01432743,39.6002696 C8.91902913,39.3879383 8.82428813,39.175607 8.72898983,38.9632757 C8.51721583,38.8468 8.30488453,38.729767 8.09255323,38.612734 C7.88022194,38.2471452 7.66844794,37.8809991 7.45611664,37.5154103 C7.17077904,37.3549079 6.88599874,37.1938482 6.60066115,37.0327885 C6.26405195,36.8282594 5.92800005,36.6237303 5.59139085,36.4180866 C5.40079426,36.0747898 5.21075496,35.7309357 5.02071566,35.3865243 C4.74318026,35.0359826 4.46508756,34.6843263 4.18755217,34.3337846 L4.18755217,33.323957 C4.09225387,33.0168847 3.99695557,32.7092551 3.90165727,32.4027401 C3.63861167,32.0003695 3.37556607,31.5985562 3.11196317,31.1961857 C2.92192388,30.7202515 2.73132728,30.2454319 2.54184528,29.770055 C2.46883898,29.2874332 2.39527538,28.8053687 2.32226908,28.3216323 C2.24146058,28.0078724 2.16120938,27.6929979 2.08095818,27.3786807 C1.82738668,26.8380997 1.57381519,26.2975187 1.32024369,25.7563804 C1.43950589,24.7537977 1.61672729,23.7606891 1.84577758,22.781513 L2.15173528,23.6481145 L2.59813258,24.3101869 L2.94310128,24.4974397 L2.55466318,23.6481145 L2.26821098,22.6433026 L2.25427848,21.6931061 L2.21693938,21.3787889 C2.90297568,19.0280976 3.90611567,16.7738191 5.20685386,14.6878452 C5.42197166,14.5279001 5.63708945,14.3685123 5.85220725,14.2085672 C6.12082585,13.9594541 6.39000175,13.7097837 6.65806305,13.4601133 C7.05653254,13.3068558 7.45500204,13.153041 7.85347154,12.9997835 C8.07416233,12.9083863 8.29485313,12.8175464 8.51554393,12.7261492 C8.53950783,12.8794067 8.56347173,13.0337788 8.58743563,13.1870363 C8.80812643,13.1914947 9.02881723,13.1965104 9.24950802,13.2009688 C9.56605442,13.0956391 9.88315812,12.9897521 10.1997045,12.8844224 C9.90712202,12.7790927 9.61398222,12.6732057 9.32195702,12.5684333 C9.51366822,12.395113 9.70537942,12.2229073 9.89709062,12.049587 C10.0509054,11.8913138 10.2047202,11.7330406 10.3579777,11.5742101 C10.2905444,11.4064628 10.2236684,11.2381582 10.1567924,11.0709682 C10.3384722,11.0514627 10.5212666,11.0325145 10.7035037,11.013009 C10.9097047,11.2052775 11.1159057,11.3964314 11.3221067,11.5886999 C11.5377818,11.5836842 11.7534569,11.5786685 11.9696893,11.5742101 C12.1669735,11.564736 12.3631431,11.5552619 12.5604273,11.5457878 C12.7042107,11.2911017 12.8479941,11.0369729 12.9917775,10.7828441 C13.0926488,10.4228283 13.1929628,10.0628125 13.2938341,9.70279673 C13.7641953,9.12710583 14.2345565,8.55141494 14.7049177,7.97516674 C14.3733242,8.06154824 14.0428453,8.14848704 13.7118091,8.23431124 C13.9559065,7.92723894 14.2011185,7.62016665 14.4452159,7.31365165 C14.6135205,7.04503305 14.7812678,6.77585715 14.9490151,6.50723855 C14.6709224,6.63263105 14.3922724,6.75690895 14.1141797,6.88174415 C13.7112518,7.18881645 13.3083239,7.49644605 12.905396,7.80296104 C12.5927507,7.94674444 12.28122,8.09108514 11.969132,8.23431124 C11.5327661,8.40763154 11.0964002,8.57983724 10.6589197,8.75315754 C11.0668633,8.40261584 11.4748069,8.05207414 11.8821932,7.70208974 C11.9869656,7.53378515 12.0906234,7.36548055 12.1948385,7.19773325 C13.2464636,6.43757606 14.3644074,5.74596676 15.5475553,5.13237947 C15.73648,5.15411417 15.9254047,5.17584887 16.1148867,5.19758357 C16.1394079,5.39876886 16.1628145,5.60051146 16.1873357,5.80225406 C16.0340782,6.06585696 15.8797061,6.32945986 15.7264486,6.59362005 C15.6016134,6.81431085 15.4773355,7.03500165 15.3525003,7.25569245 C15.7024847,7.26070815 16.0530264,7.26572385 16.4030108,7.26962495 C16.7775164,7.07289805 17.1514647,6.87617115 17.5259703,6.67944425 C17.9578778,6.47825896 18.3897852,6.27595906 18.8216927,6.07477376 C19.2051151,5.90646916 19.5890948,5.73872186 19.9730745,5.57097456 C19.8242754,5.48459306 19.6754763,5.39821156 19.5266772,5.31183006 C19.5121874,5.16303097 19.4976976,5.01478917 19.4837651,4.86543277 C19.6464967,4.67873727 19.8097856,4.49148447 19.9730745,4.30423167 C20.0588987,4.11697887 20.1458375,3.92972608 20.232219,3.74247328 C20.3615126,3.85783438 20.4913635,3.97263818 20.6206571,4.08799927 C20.6825174,4.00663348 20.7454923,3.92471038 20.8079099,3.84334458 C20.956709,3.89127238 21.1049508,3.93975748 21.2543072,3.98768528 C21.5184674,4.01164918 21.781513,4.03561308 22.0456732,4.05957697 C21.8684518,4.29475757 21.6906731,4.52993817 21.5134517,4.76511877 C21.4125804,4.88047987 21.3122664,4.99528367 21.2108378,5.11064477 C21.0096525,5.35084106 20.8079099,5.59048006 20.6061673,5.83011906 C20.2851625,6.10876906 19.9636004,6.38686176 19.6420383,6.66495445 C19.4313789,6.73238775 19.2201622,6.79926375 19.0089455,6.86669705 C18.7882547,7.09184625 18.5675639,7.31755275 18.3468731,7.54325925 C18.1261824,7.65806305 17.9054916,7.77342414 17.6848008,7.88878524 C17.4546359,8.11895014 17.224471,8.34911504 16.9943061,8.57927994 C16.8839607,8.76151704 16.7736153,8.94375413 16.6627126,9.12599123 C16.7206718,9.18395043 16.7780737,9.24135233 16.8360329,9.29931153 C16.7931208,9.43807923 16.7496514,9.57740423 16.7067393,9.71617193 C16.8488508,9.78917823 16.9909623,9.86218453 17.1330738,9.93463353 C17.2818729,9.80979833 17.430672,9.68552043 17.5794711,9.56068523 C17.7856721,9.43139163 17.9918731,9.30154073 18.1980741,9.17224713 C18.4421714,9.02289073 18.6879407,8.87464894 18.9320381,8.72584984 C19.1911826,8.69687024 19.4503271,8.66789064 19.7094716,8.63946834 C20.0221169,8.53413864 20.3330903,8.42825164 20.6451783,8.32292194 C20.8034515,8.22205064 20.9617247,8.12173664 21.1211125,8.02086534 C21.2788284,8.05876174 21.4371016,8.09777274 21.5959321,8.13566914 C21.9944016,8.07380884 22.3928711,8.01083394 22.7907833,7.94841634 C22.9490565,7.83862824 23.1073297,7.72772554 23.2661602,7.61738015 C23.4584287,7.42065325 23.6501399,7.22392635 23.8418511,7.02719945 C24.1199438,6.76805495 24.3985938,6.50891045 24.6766865,6.24976596 C24.8349597,6.07644566 24.9932329,5.90423996 25.1520634,5.73091966 C25.3632801,5.53419276 25.5744968,5.33746586 25.7857135,5.14073897 C25.9534608,5.07386297 26.1217654,5.00642967 26.2889554,4.93955367 C26.1813965,4.73390997 26.0755095,4.52826627 25.9701798,4.32150797 C26.1858549,4.43185337 26.40153,4.54219877 26.6177624,4.65310147 C27.0062005,4.71496177 27.3951959,4.77793667 27.783634,4.83979697 C28.1581396,4.83032287 28.5320879,4.82084877 28.9065935,4.81081737 C29.3769547,4.72945157 29.8473159,4.64808577 30.3171198,4.56671997 C30.4369392,4.41346247 30.557316,4.25964767 30.6771355,4.10639017 C30.9412957,4.17326617 31.2048986,4.24014217 31.4690588,4.30757547 C31.593894,4.29754407 31.7181719,4.28862727 31.8435644,4.27859587 C31.8190432,4.08186897 31.7950793,3.88514208 31.7711154,3.68841518 C31.9243729,3.58754388 32.0781877,3.48667258 32.2320025,3.38580128 C32.4571517,3.30443548 32.6828582,3.22251238 32.9085647,3.14170388 C33.1721676,3.15117798 33.4363278,3.16065208 33.700488,3.17012618 C33.7133059,3.05420778 33.7277957,2.93773208 33.7411709,2.82125639 C33.7199935,2.80286549 33.6982588,2.78447459 33.6770814,2.76608369 C34.1864536,2.88088748 34.6913674,3.01129568 35.1918228,3.15507908 C35.1723173,3.23644488 35.1522545,3.31836798 35.132749,3.40029108 C35.0006689,3.32226908 34.8680315,3.24480438 34.7359514,3.16678238 C34.4795934,3.22139778 34.2226781,3.27545588 33.9663201,3.33007128 C34.0365399,3.52456898 34.1062024,3.71850938 34.1764222,3.91300708 C34.4912967,4.23568377 34.8061712,4.55836047 35.1204884,4.88103717 C35.1087851,5.14854117 35.0976391,5.41715976 35.0853785,5.68522106 C35.3066266,5.85965596 35.528432,6.03520546 35.7496801,6.20964036 C35.5863912,6.47770166 35.4231023,6.74576295 35.2598134,7.01382425 C35.3645858,7.03332975 35.4699155,7.05283525 35.5746879,7.07178345 C35.6716581,7.18435805 35.7691856,7.29693265 35.8655985,7.41006455 C35.5858339,7.49143035 35.3060693,7.57279615 35.0263047,7.65416195 C34.9287772,7.89157174 34.831807,8.12898154 34.7348368,8.36527674 C34.6378666,8.43939764 34.5403391,8.51351854 34.4439262,8.58708214 C34.2962417,8.68795344 34.1485572,8.78882474 34.0008727,8.88969604 C33.8838397,8.80052804 33.767364,8.71136004 33.6508883,8.62219204 C33.5572619,8.54807114 33.4641928,8.47395024 33.3705664,8.40038664 C33.2078348,8.35022964 33.0445459,8.29951534 32.881257,8.24935834 C32.6366023,8.22985284 32.3913903,8.21090464 32.1467356,8.19139914 C32.0185566,8.17189364 31.8903776,8.15294544 31.7621986,8.13343994 C31.6880777,8.12173664 31.6145141,8.11003334 31.5409505,8.09833004 C31.4556836,8.02030804 31.3698594,7.94284334 31.2845925,7.86482134 L30.841539,7.86482134 C30.6782501,7.89603014 30.5149612,7.92668164 30.3516724,7.95789044 C30.1733364,8.00470364 29.9938858,8.05151684 29.8155498,8.09833004 C29.6907146,8.25325944 29.566994,8.40930344 29.4421588,8.56423284 C29.3641368,8.73922504 29.2866721,8.91421723 29.2092074,9.08865213 C29.1116799,9.22073223 29.0141524,9.35336963 28.9177395,9.48544973 C28.7661539,9.64483753 28.6145683,9.80422533 28.4629827,9.96305583 C28.3191993,10.0566822 28.1754159,10.1497513 28.0316325,10.2433777 C27.8761458,10.4256148 27.7206591,10.6084092 27.5651724,10.7906463 C27.3974251,10.9422319 27.2307924,11.0938175 27.0636024,11.2454031 C27.036852,11.3930876 27.008987,11.5407721 26.9822366,11.6884566 C26.9939399,11.8049323 27.0050859,11.921408 27.0173465,12.038441 C27.0485553,12.1510156 27.0792068,12.2635902 27.1104156,12.3761648 C27.165031,12.4692339 27.2190891,12.5628603 27.2737045,12.6559294 C27.3550703,12.6988415 27.4369934,12.7411963 27.5183592,12.7841084 C27.6582415,12.7177897 27.7981238,12.6520283 27.9380061,12.5862669 C27.9458083,12.4887394 27.9536105,12.3917692 27.9614127,12.294799 C28.1481082,12.2524442 28.3348037,12.2095321 28.5209419,12.1671773 C28.5293014,12.2368398 28.5365463,12.3065023 28.5443485,12.3767221 C28.6301727,12.5322088 28.7159969,12.6876955 28.8012638,12.8431822 C28.8670252,12.9518557 28.9327866,13.0610865 28.9991053,13.16976 C28.987402,13.2355214 28.9756987,13.3018401 28.9639954,13.3676015 C28.9717976,13.465129 28.9790425,13.5620992 28.9868447,13.6590694 C29.1228259,13.6785749 29.2588071,13.6975231 29.3947883,13.7170286 C29.4761541,13.6468088 29.5580772,13.5771463 29.639443,13.5069265 C29.7793253,13.4099563 29.9192076,13.3124288 30.0590899,13.2154586 C30.0167351,13.0911807 29.973823,12.9669028 29.9314682,12.8426249 C29.9158638,12.7177897 29.9002594,12.5940691 29.884655,12.4692339 C30.0902987,12.383967 30.2964997,12.2981428 30.5027006,12.2128759 C30.4285798,12.1003013 30.3544589,11.9877267 30.2808953,11.8751521 C30.141013,11.7937863 30.0011307,11.7118632 29.8612484,11.6304974 C29.8696079,11.3819416 29.8768528,11.1328285 29.884655,10.8842727 C30.051845,10.7482915 30.219035,10.6123103 30.3856677,10.4763291 C30.4363819,10.3253008 30.4870962,10.1731579 30.5366959,10.0215723 C30.6108168,9.90119553 30.6849377,9.78081873 30.7585013,9.66044193 C30.9368373,9.66434303 31.1162879,9.66880143 31.2946239,9.67214523 C31.3219316,9.80422533 31.3492393,9.93630543 31.3759897,10.0683855 C31.2249614,10.1887623 31.0728185,10.3096964 30.9212329,10.4295159 C30.874977,10.5777577 30.8281638,10.7248849 30.7813506,10.8725694 C30.8599299,11.0592649 30.9368373,11.2459604 31.0148593,11.4326559 C31.0889802,11.5413294 31.1625438,11.6505602 31.2361074,11.7592337 C31.4462095,11.7475304 31.6563116,11.7358271 31.8658564,11.7241238 C31.9706288,11.6154503 32.0754012,11.5062195 32.1801736,11.3981033 C32.4175834,11.4521614 32.6549932,11.5062195 32.8912884,11.5608349 C32.8873873,11.6193514 32.8834862,11.6778679 32.8795851,11.7358271 C32.786516,11.7865414 32.6928896,11.8366984 32.5998205,11.8868554 C32.4053228,11.9570752 32.2113824,12.0267377 32.0163274,12.0969575 C31.8764451,12.1320674 31.7365628,12.1671773 31.5966805,12.2017299 C31.527018,12.3260078 31.4567982,12.4502857 31.3871357,12.5745636 C31.4372927,12.6325228 31.488007,12.6910393 31.538164,12.7489985 C31.448996,12.7807646 31.359828,12.8114161 31.2701027,12.8426249 C31.2979677,13.0254193 31.3247181,13.2076564 31.3514685,13.3904508 C31.4216883,13.5069265 31.4913508,13.6234022 31.5615706,13.7404352 C31.3982817,13.8491087 31.2349928,13.9583395 31.0717039,14.067013 C30.9741764,14.0898623 30.8772062,14.1132689 30.780236,14.1366755 C30.718933,14.0820601 30.6559581,14.028002 30.5940978,13.9733866 C30.5472846,14.0045954 30.5010287,14.0352469 30.4542155,14.067013 C30.3566881,14.1327744 30.2597179,14.1985358 30.1627477,14.2648545 C30.0579753,14.3150115 29.9532029,14.3662831 29.8484305,14.4158828 C29.8099768,14.5011497 29.7704085,14.5869739 29.7313975,14.6727981 C29.6422295,14.5942188 29.5530615,14.5173114 29.4638935,14.4392894 C29.4059343,14.3462203 29.3474178,14.2525939 29.2889013,14.1595248 C29.2192388,14.2291873 29.149019,14.2994071 29.0793565,14.3696269 C28.8887599,14.3540225 28.6981633,14.3378608 28.508124,14.3228137 C28.4423626,14.2180413 28.3754866,14.1127116 28.3097252,14.0079392 C28.3481789,13.8803175 28.3877472,13.7515812 28.4262009,13.6234022 C28.4769152,13.5108276 28.5276295,13.398253 28.5777865,13.2856784 C28.4958634,13.1653016 28.4144976,13.0443675 28.3325745,12.924548 C28.2428492,13.00257 28.1536812,13.0800347 28.0645132,13.1574994 C27.9714441,13.2622718 27.8778177,13.3676015 27.7847486,13.4723739 C27.8427078,13.6702154 27.9012243,13.8686142 27.9591835,14.067013 C27.9669857,14.2024369 27.9747879,14.3384181 27.9825901,14.4749566 C27.8661144,14.5173114 27.7490814,14.5602235 27.6326057,14.6025783 L27.1901095,14.6025783 C27.1003842,14.6644386 27.0112162,14.7274135 26.9214909,14.7887165 C26.8434689,14.9168955 26.7665615,15.0456318 26.6885395,15.1738108 C26.5837671,15.2629788 26.4784374,15.3521468 26.3742223,15.4418721 C26.1914279,15.5076335 26.0086335,15.5739522 25.8263964,15.6397136 C25.8146931,15.7327827 25.8024325,15.8258518 25.7912865,15.9194782 C25.6553053,15.9969429 25.5193241,16.0744076 25.3839002,16.1524296 C25.3721969,16.207045 25.3604936,16.2616604 25.3487903,16.3157185 C25.1509488,16.2923119 24.95255,16.2694626 24.7547085,16.246056 C24.7313019,16.335224 24.7078953,16.424392 24.6844887,16.51356 C24.6103678,16.541425 24.5368042,16.5687327 24.4632406,16.5949258 C24.3149988,16.5408677 24.1678716,16.4862523 24.0201871,16.4321942 C23.8920081,16.4979556 23.7632718,16.5642743 23.6356501,16.6300357 C23.6936093,16.6957971 23.7521258,16.7621158 23.810085,16.8278772 C24.0084838,16.9014408 24.2068826,16.9755617 24.4047241,17.0491253 C24.4320318,17.1695021 24.4593395,17.2898789 24.4860899,17.4102557 C24.5563097,17.4799182 24.6259722,17.5506953 24.696192,17.6203578 C24.6766865,17.7017236 24.657181,17.7830894 24.6376755,17.8644552 C24.6025656,18.0940628 24.568013,18.3231131 24.5329031,18.5527207 C24.4515373,18.6457898 24.3696142,18.7394162 24.2882484,18.8324853 C24.0820474,18.8402875 23.8764037,18.8480897 23.6702027,18.8558919 C23.3558855,18.7934743 23.0404537,18.7310567 22.7261365,18.6686391 C22.5355399,18.6881446 22.3449433,18.7076501 22.154904,18.7271556 C22.0462305,18.8670379 21.9369997,19.0069202 21.8283262,19.1473598 C21.6772979,19.3452012 21.525155,19.5436 21.3741267,19.7414415 C21.3936322,19.9125326 21.4125804,20.0830664 21.4320859,20.2541575 C21.3891738,20.4057431 21.346819,20.5573287 21.3039069,20.7089143 C21.3546212,20.8716459 21.4053355,21.0354921 21.4554925,21.198781 C21.5446605,21.287949 21.6338285,21.377117 21.7229965,21.466285 C21.8901865,21.5091971 22.0579338,21.5515519 22.2240092,21.594464 C22.2284676,21.7343463 22.2323687,21.8742286 22.2357125,22.0146682 C22.3059323,22.057023 22.3755948,22.0993778 22.4458146,22.1422899 C22.589598,22.0765285 22.7333814,22.0107671 22.8766075,21.9444484 C23.1953831,21.9405473 23.5141587,21.9372035 23.8329343,21.9333024 C23.9070552,21.8864892 23.9806188,21.839676 24.0541824,21.7928628 C24.1823614,21.7036948 24.3105404,21.6145268 24.4387194,21.5253588 C24.5128403,21.4467795 24.5869612,21.3698721 24.6599675,21.2918501 C24.6053521,21.1475094 24.5518513,21.0042833 24.4972359,20.8604999 C24.5239863,20.7167165 24.5518513,20.5729331 24.5786017,20.429707 C24.718484,20.2703192 24.8583663,20.1109314 24.9988059,19.9515436 C25.1849441,19.8896833 25.3716396,19.8272657 25.5583351,19.7648481 C25.6553053,19.6171636 25.7528328,19.4694791 25.8492457,19.3223519 C25.8687512,19.2209234 25.8882567,19.1200521 25.9072049,19.0191808 C26.0665927,18.9801698 26.2259805,18.9411588 26.3853683,18.9021478 C26.5447561,18.9528621 26.7035866,19.0035764 26.8629744,19.0537334 C27.1215616,18.9556486 27.3795915,18.8581211 27.6381787,18.7611509 C27.8271034,18.7043063 28.0160281,18.6485763 28.2049528,18.5911744 C28.3058241,18.6352011 28.4061381,18.6792278 28.5070094,18.7232545 C28.5510361,18.8274696 28.5950628,18.9311274 28.6390895,19.0353425 C28.7655966,19.1668653 28.8909891,19.2995026 29.0174962,19.43214 C29.1300708,19.5419281 29.24376,19.6528308 29.3568919,19.7626189 C29.5274257,19.8350679 29.6968449,19.9075169 29.8668214,19.9799659 C30.0083756,20.0552014 30.1504871,20.1309942 30.2920413,20.206787 C30.3962564,20.2881528 30.4999141,20.3700759 30.6041292,20.4514417 C30.6698906,20.5617871 30.735652,20.6721325 30.8019707,20.7824779 L30.7735484,21.0750604 C30.7384385,21.1447229 30.7044432,21.2138281 30.6693333,21.2829333 C30.7105735,21.3486947 30.7506991,21.4150134 30.7924966,21.4807748 C30.8493412,21.4239302 30.9056285,21.3676429 30.9624731,21.3107983 C31.0282345,21.2194011 31.0945532,21.1285612 31.1608719,21.037164 C31.1892942,20.9769756 31.2177165,20.9173445 31.2455815,20.8571561 C31.2104716,20.7980823 31.175919,20.7378939 31.1413664,20.6782628 L30.980864,20.5177604 C31.0126301,20.4703899 31.0438389,20.4235767 31.0750477,20.3762062 C31.1006835,20.3388671 31.125762,20.3004134 31.1508405,20.262517 C31.2388939,20.3199189 31.3269473,20.3762062 31.415558,20.4330508 C31.4534544,20.4865516 31.4913508,20.5400524 31.5286899,20.5935532 C31.5794042,20.5556568 31.6295612,20.5177604 31.6797182,20.4804213 C31.588321,20.3856803 31.4974811,20.2914966 31.4060839,20.1967556 C31.292952,20.1181763 31.1792628,20.039597 31.0661309,19.9604604 C30.952999,19.8757508 30.8393098,19.7904839 30.7261779,19.7057743 C30.6671041,19.7091181 30.6063584,19.7119046 30.5472846,19.7152484 C30.4207776,19.677352 30.2953851,19.6400129 30.1694353,19.6021165 C30.0902987,19.5012452 30.0117194,19.4009312 29.9331401,19.2995026 C29.8634776,19.1674226 29.7943724,19.0353425 29.7252672,18.9032624 C29.6243959,18.8558919 29.5240819,18.8085214 29.4232106,18.7611509 C29.3635795,18.6547066 29.3033911,18.5471477 29.24376,18.4407034 C29.2621509,18.3994632 29.2810991,18.3587803 29.3006046,18.3175401 C29.2688385,18.2551225 29.2376297,18.191033 29.2064209,18.1286154 C29.24376,18.0812449 29.2816564,18.0338744 29.3195528,17.9865039 C29.4265544,17.9614254 29.533556,17.9363469 29.6400003,17.9112684 C29.728611,17.973686 29.8166644,18.0372182 29.9052751,18.1001931 C29.9743803,18.191033 30.0434855,18.2824302 30.113148,18.3738274 C30.1883835,18.4713549 30.2641763,18.5688824 30.3394118,18.6658526 C30.4241214,18.7355151 30.5093882,18.8046203 30.5940978,18.8737255 C30.6949691,18.9088354 30.7952831,18.943388 30.8967117,18.9779406 C30.9502125,19.0442593 31.003156,19.110578 31.0572141,19.1763394 C31.2333209,19.2170223 31.409985,19.2577052 31.5855345,19.2989453 C31.6802755,19.4382703 31.7744592,19.5759234 31.8692002,19.7146911 C31.8374341,19.8283803 31.8062253,19.9415122 31.7744592,20.0540868 C31.8597261,20.1426975 31.944993,20.2307509 32.0297026,20.3193616 C32.1584389,20.4168891 32.2877325,20.5149739 32.4164688,20.6119441 C32.5870026,20.6370226 32.7564218,20.6621011 32.9263983,20.6871796 C32.9865867,20.797525 33.0462178,20.9078704 33.1058489,21.0182158 C33.3360138,21.1190871 33.5656214,21.2194011 33.795229,21.3202724 C33.8359119,21.2294325 33.8771521,21.1380353 33.9183923,21.0460808 C33.7762808,20.9485533 33.6347266,20.8510258 33.4931724,20.7540556 C33.4363278,20.6559708 33.3794832,20.5584433 33.3226386,20.4614731 C33.2852995,20.3700759 33.2474031,20.2786787 33.2095067,20.1878388 C33.3137218,20.0680193 33.4173796,19.9487571 33.5215947,19.8289376 C33.6698365,19.8161197 33.8169637,19.8033018 33.9652055,19.7910412 L34.3620031,19.7910412 C34.5002135,19.7341966 34.6389812,19.677352 34.7777489,19.6210647 C34.8379373,19.5575325 34.898683,19.4945576 34.9588714,19.43214 C34.8323643,19.1791259 34.7058572,18.926669 34.5793501,18.6730975 C34.787223,18.5833722 34.9945386,18.4930896 35.2024115,18.402807 C35.472702,18.2044082 35.7441071,18.0054521 36.0149549,17.8070533 C36.2133537,17.8254442 36.4123098,17.8432778 36.6107086,17.8616687 C36.7734402,17.7351616 36.9356145,17.6086545 37.0983461,17.4821474 C37.3418862,17.499981 37.5854263,17.5178146 37.8295237,17.5367628 C38.0819806,17.6543531 38.3349948,17.7713861 38.588009,17.8884191 C38.777491,18.0060094 38.9675303,18.1235997 39.1570123,18.24119 L39.1570123,18.7288275 C39.0037548,18.7912451 38.84994,18.8553346 38.6966825,18.9183095 C38.4888096,18.9628935 38.2809367,19.0085921 38.0736211,19.0537334 C37.8568314,18.9723676 37.640599,18.8910018 37.4238093,18.809636 C37.1707951,18.7912451 36.9183382,18.7734115 36.665324,18.7555779 C36.5120665,18.8904445 36.3582517,19.0258684 36.2049942,19.1612923 C36.0249863,19.2159077 35.8438638,19.2694084 35.6632986,19.3245811 C35.4732593,19.4237805 35.2837773,19.5224226 35.0942953,19.6221793 C34.8775056,19.7213787 34.6612732,19.8205781 34.4444835,19.9197775 C34.4623171,20.1003427 34.4801507,20.2809079 34.4985416,20.4614731 C34.6885809,20.6425956 34.8780629,20.8226035 35.0675449,21.003726 C35.2659437,21.2389066 35.4648998,21.4729726 35.6632986,21.7081532 C35.834947,21.6630119 36.0060381,21.6178706 36.1782438,21.5727293 C36.2406614,21.4646131 36.3047509,21.3559396 36.3677258,21.2472661 C36.4853161,21.338106 36.6023491,21.4283886 36.7199394,21.5186712 C36.9640368,21.4824467 37.2075769,21.4456649 37.451117,21.410555 C37.5324828,21.3018815 37.6138486,21.193208 37.6952144,21.0850918 C37.9482286,21.1029254 38.2006855,21.1213163 38.4536997,21.1397072 C38.431965,21.2812614 38.4107876,21.4228156 38.3896102,21.5643698 C38.3812507,21.9377608 38.3740058,22.3105945 38.3662036,22.6839855 C38.3974124,22.9403435 38.4280639,23.1967015 38.4592727,23.4530595 C38.5406385,23.472565 38.6225616,23.4920705 38.7039274,23.511576 C38.7657877,23.7445274 38.8287626,23.9780361 38.8906229,24.2115448 C38.855513,24.3508698 38.8204031,24.4913094 38.7858505,24.6306344 C38.805356,24.8373927 38.8248615,25.044151 38.844367,25.2509093 C38.9346496,25.3138842 39.0249322,25.3774164 39.1152148,25.4403913 C39.3046968,25.6660978 39.4941788,25.8923616 39.6842181,26.1180681 C39.8463924,26.3526914 40.009124,26.5873147 40.1712983,26.821938 C40.2888886,26.894387 40.4064789,26.966836 40.5235119,27.0387277 C40.6594931,27.3190496 40.7943597,27.5993715 40.9297836,27.8791361 C41.0652075,28.0775349 41.2006314,28.276491 41.3360553,28.4743325 C41.5160632,28.5467815 41.6966284,28.6186732 41.8777509,28.6916795 C41.9775076,28.8716874 42.0761497,29.0522526 42.1753491,29.2333751 C42.383222,29.4501648 42.5910949,29.6663972 42.7984104,29.8837442 C43.0709301,30.5474885 43.3434498,31.2117901 43.6159695,31.8766489 C44.0857734,31.5333521 44.55502,31.1906127 45.0242666,30.8467586 C45.4037879,30.4861855 45.7821946,30.1244978 46.1617159,29.7639247 C46.288223,29.6368603 46.4141728,29.5109105 46.5412372,29.3844034 C46.5590708,29.1949214 46.5769044,29.0054394 46.5952953,28.8154001 C46.767501,28.6532258 46.9380348,28.4910515 47.1102405,28.3283199 C47.2278308,28.2196464 47.3448638,28.1109729 47.4624541,28.003414 C47.5075954,27.7866243 47.5527367,27.5698346 47.597878,27.3530449 C47.7059942,27.2627623 47.8146677,27.1724797 47.9227839,27.0827544 C47.859809,26.8927151 47.7962768,26.7032331 47.7327446,26.5137511 C47.8235845,26.2880446 47.9133098,26.0617808 48.0035924,25.8360743 C48.0398169,25.6465923 48.0760414,25.456553 48.1117086,25.267071 C47.9222266,25.1316471 47.7321873,24.9962232 47.5427053,24.8607993 C47.3983646,24.888107 47.2534666,24.915972 47.1096832,24.9421651 C46.9920929,24.8607993 46.8750599,24.7794335 46.7574696,24.6980677 C46.6398793,24.4277772 46.5228463,24.1558148 46.405256,23.8855243 C46.3238902,24.1558148 46.2425244,24.4277772 46.1611586,24.6980677 C46.070876,24.8697161 45.9805934,25.0408072 45.8903108,25.2130129 C45.7370533,25.2943787 45.5832385,25.3751872 45.4305383,25.456553 C45.3396984,25.4208858 45.2494158,25.3846613 45.1596905,25.3484368 C45.1502164,25.2308465 45.1412996,25.1138135 45.1323828,24.9962232 C45.0872415,24.8429657 45.0421002,24.6897082 44.9969589,24.5358934 C44.933984,24.5810347 44.8704518,24.6267333 44.8074769,24.6713173 L44.8074769,25.0508386 C44.7261111,24.9510819 44.6447453,24.8524398 44.5633795,24.7526831 C44.4368724,24.5999829 44.3103653,24.4456108 44.1838582,24.2929106 C43.9581517,24.0850377 43.7324452,23.8771648 43.5067387,23.6698492 C43.4710715,23.489284 43.4342897,23.3087188 43.3986225,23.1281536 C43.5607968,23.0373137 43.7235284,22.9470311 43.88626,22.8567485 C44.0846588,23.0551473 44.2836149,23.2541034 44.4820137,23.4525022 C44.5633795,23.5700925 44.644188,23.6876828 44.7255538,23.8052731 C44.8342273,23.795799 44.9429008,23.7868822 45.0504597,23.7779654 C45.2131913,23.868248 45.3759229,23.9579733 45.5380972,24.0482559 L45.8630031,24.0482559 C46.0079011,23.868248 46.1522418,23.6876828 46.2965825,23.5065603 C46.3863078,23.4976435 46.4771477,23.4887267 46.5674303,23.4792526 C46.6571556,23.6692919 46.7474382,23.8587739 46.8377208,24.0482559 C47.1988512,23.9401397 47.5599816,23.8320235 47.921112,23.7239073 C48.1735689,23.5879261 48.4265831,23.4525022 48.67904,23.3176356 C48.8512457,23.2095194 49.0223368,23.1008459 49.1939852,22.9927297 C49.2123761,22.9832556 49.2296524,22.9743388 49.2486006,22.9648647 C49.4286085,23.1370704 49.609731,23.3081615 49.7902962,23.4798099 C49.9797782,23.5427848 50.1698175,23.6068743 50.3592995,23.6698492 C50.4941661,23.5611757 50.62959,23.4525022 50.7650139,23.344386 C50.9455791,23.5344253 51.1261443,23.7244646 51.3072668,23.9133893 C51.5240565,24.4188604 51.7402889,24.9243315 51.9570786,25.4298026 C52.1554774,25.8004071 52.3544335,26.1704543 52.5528323,26.5405015 C52.7785388,26.9378564 53.0042453,27.3352113 53.2299518,27.7325662 C53.3564589,28.120447 53.482966,28.5088851 53.6094731,28.8973232 C53.6640885,28.5005256 53.7175893,28.1031707 53.7722047,27.7058158 C53.7538138,27.0732803 53.7365375,26.4407448 53.7175893,25.8098812 C53.5821654,25.5473929 53.4467415,25.2860192 53.3113176,25.0246455 C53.3742925,24.5910661 53.4378247,24.1569294 53.5007996,23.7244646 C53.4283506,23.1911285 53.3559016,22.6583497 53.2840099,22.1261282 C53.2567022,21.82853 53.2293945,21.5303745 53.2026441,21.232219 C53.2522438,21.0839772 53.3018435,20.9357354 53.3508859,20.7874936 C57.3472841,33.3679837 51.5012072,47.3071712 39.2394927,53.0696532 L39.2394927,53.0696532 Z" id="Shape" fill="#95FFA9"></path>
                <polygon id="Shape" fill="#95FFA9" points="23.5944099 9.79140743 23.364245 9.23020633 22.9618744 9.20178403 22.4720077 9.14382483 21.9397862 9.07137583 21.6806417 9.28760823 21.8244251 9.54675273 21.6371723 9.84936663 21.881827 10.0505519 22.4575179 10.1224436 22.9902967 9.97866023"></polygon>
                <polygon id="Shape" fill="#95FFA9" points="22.5946137 15.1353571 23.1145746 15.003277 23.4450535 14.908536 23.6813487 14.5875312 23.8033974 14.22863 23.9739312 14.0307885 23.7471101 13.6050113 23.3508698 13.5392499 23.1240487 13.9265734 22.8782794 14.0207571 22.8309089 14.3612674 22.6798806 14.4749566 22.6514583 14.6438185 22.4814818 14.7770132 22.4441427 15.0695957"></polygon>
                <polygon id="Shape" fill="#95FFA9" points="23.6529264 15.872665 23.9923221 15.7305535 24.1812468 15.7868408 24.5211998 15.6174216 25.0980053 15.6174216 25.6926444 15.560577 25.8626209 15.4089914 25.749489 15.2105926 26.0041751 14.9748547 25.7115926 14.7385595 25.4948029 14.4175547 25.3526914 14.0865185 25.1637667 13.8702861 25.1453758 13.6523818 24.8996065 13.4350348 24.9375029 13.1803487 25.1827149 13.0008981 25.2300854 12.6609451 25.2111372 12.2362825 24.1060113 12.3209921 23.9739312 12.8403957 24.049724 13.2845638 24.1628559 13.6997523 24.4743866 13.9455216 24.6727854 14.323371 24.3991511 14.5306866 24.2096691 14.5306866 24.2286173 14.908536 24.0112703 15.0127511 23.9176439 15.1738108 24.0781463 15.3811264"></polygon>
                <polygon id="Shape" fill="#95FFA9" points="42.9193445 47.6621713 43.696778 47.316088 44.1136384 46.6545729 44.7907579 45.4597217 45.3084896 44.4521233 45.8412684 43.4590148 45.7838665 42.0629783 45.3948711 42.7679628 45.2655775 42.7679628 45.0928145 43.0850665 44.6464172 43.6317777 44.1286855 44.0631279 43.6393761 44.3367622 43.5524373 44.6533086 43.3651845 44.8840308 43.4521233 45.38783 43.351252 45.7768254 43.0776177 46.0499024 42.7755611 46.4673201 42.5453963 46.7989136 42.6746898 47.0145887 42.5303492 47.3601147"></polygon>
                <polygon id="Shape" fill="#95FFA9" points="32.4515787 52.1395195 31.7911782 51.7265602 31.8731013 51.3960813 31.3364214 50.3639617 31.0070571 50.3227215 30.5935405 48.5895185 29.4789406 46.8964411 29.6032185 45.7818411 30.5523003 44.5847607 30.1398984 43.6763617 30.3048592 43.0572015 29.6439014 42.0250819 28.2400627 40.1670437 28.7360597 38.350803 28.1988225 37.5254417 26.7955411 37.5661246 26.3413416 37.3604809 25.7634215 36.5345623 23.3280205 36.9882045 22.7913406 37.2774432 22.0066622 36.9475216 20.0661436 37.2774432 18.1261824 35.5024427 16.7641412 34.5940437 15.6495412 34.1816417 16.3506246 31.9106442 17.0115824 30.3418448 16.8048241 28.7318051 17.2590236 27.6584453 17.9199814 27.1630056 18.0431447 26.5031624 18.9103034 25.718484 20.4378627 24.9756031 20.8920622 23.4474865 21.7179808 22.9526041 22.3783813 22.3334438 22.9563014 22.6633654 23.6584994 22.8288835 24.5245436 22.4566071 25.5159803 22.0447624 26.9605019 22.0447624 27.9513813 22.2097232 28.4880612 21.9204845 29.1072215 22.0854453 28.6942622 23.2825257 29.0659813 23.6130046 30.5935405 24.1909247 31.2132581 24.6451242 32.3278581 25.0168433 32.8227405 24.7276046 32.6995772 24.1909247 32.9882586 23.7779654 34.5158179 24.1084443 36.208338 24.2734051 36.9099787 24.1909247 37.7358973 24.3558855 39.2222164 26.8743242 39.7588963 27.7002428 40.2537787 28.0301644 40.7904586 29.4752433 41.4101762 29.9288855 41.9880963 30.8785247 42.7722173 31.4982422 43.7218565 32.3648437 44.0517781 32.8190432 44.4647374 32.4478814 45.0426575 32.3648437 45.4143766 31.9106442 46.405256 31.2084463 46.405256 32.8602834 45.5380972 35.1719638 44.0517781 37.3604809 42.4004983 39.465403 42.0293365 40.8686844 42.2762204 42.4792814 42.3592581 44.3780024 41.2858983 45.3276416 40.2125385 45.9885994 39.552138 46.6484426 39.7176561 47.6811195 39.4278601 48.2177994 38.1895395 48.8364024 38.0245787 49.5803979 37.1992174 50.2402411 35.7953787 51.3960813 34.5158179 52.0152416 33.2362571 52.5524788"></polygon>
                <polyline id="Shape" fill="#95FFA9" points="30.6342234 21.3849192 30.1376692 21.5677136 29.728611 21.6290166 29.6762248 21.8463636 30.2597179 22.0553511 30.5645609 22.1601235 30.7819079 21.9204845 30.679922 21.6897623"></polyline>
                <polyline id="Shape" fill="#95FFA9" points="36.3292721 22.4649666 36.6775846 22.3429179 36.999704 22.1601235 37.3825691 21.8463636 37.3825691 21.9773291 37.2694372 22.1166541 37.217051 22.2821722 37.2867135 22.3601942 37.3825691 22.5167955 37.2605204 22.6215679 37.0693665 22.7085067 36.8559206 22.8478317 36.3292721 22.8478317 36.2072234 22.7085067"></polyline>
                <polyline id="Shape" fill="#95FFA9" points="27.8064833 19.9576739 27.7011536 20.1198482 27.7535398 20.2820225 27.9207298 20.4157745 27.9207298 20.2914966 27.9686576 20.0624463"></polyline>
                <use id="Oval" stroke="#70CFC9" mask="url(#mask-4)" stroke-width="4" xlink:href="#path-3"></use>
            </g>
        </g>
    </g>
</svg>