<?xml version="1.0" encoding="UTF-8" standalone="no"?>
<svg width="48px" height="38px" viewBox="0 0 48 38" version="1.1" xmlns="http://www.w3.org/2000/svg" xmlns:xlink="http://www.w3.org/1999/xlink">
    <!-- Generator: Sketch 39.1 (31720) - http://www.bohemiancoding.com/sketch -->
    <title>Rings@1x</title>
    <desc>Created with Sketch.</desc>
    <defs></defs>
    <g id="Page-1" stroke="none" stroke-width="1" fill="none" fill-rule="evenodd">
        <g id="Rings" transform="translate(-5.000000, -3.000000)" fill="#60CFC8">
            <g id="Right" transform="translate(37.622540, 22.691692) rotate(22.000000) translate(-37.622540, -22.691692) translate(24.122540, 3.691692)">
                <path d="M8.59449557,7.85382957 L8.34600398,8.84584307 L9.36852953,8.85266071 L13.3859092,8.87944643 L14.1947415,8.88483929 L14.1947415,8.07589286 L14.1947415,1.63392857 L12.5877897,1.63392857 L12.5877897,8.07589286 L13.396622,7.27233929 L9.37924231,7.24555357 L10.1532763,8.24438472 L11.7602281,1.82920614 L10.2014474,1.438651 L8.59449557,7.85382957 Z M16.8788356,8.32933295 L17.0462544,8.89886055 L17.6397694,8.90618877 L18.7244619,8.91958163 L18.7442993,7.31256123 L17.6596068,7.29916837 L18.4205406,7.87602419 L16.5189808,1.40727419 L14.9772758,1.86058295 L16.8788356,8.32933295 Z M17.2136426,9.46781222 L18.7552968,9.01433063 L18.4205152,7.87593778 L16.878861,8.32941937 L17.2136426,9.46781222 Z M17.512697,10.7410655 L17.5188538,9.13393447 L10.5286132,9.10714876 L10.5224563,10.7142798 L17.512697,10.7410655 Z M17.6446348,8.90623411 L17.6547413,7.29912304 L13.3963188,7.27233732 L13.3862124,8.87944839 L17.6446348,8.90623411 Z M9.36505705,8.85263006 L9.38271479,7.24558423 L8.16410962,7.23219137 L8.14645188,8.8392372 L9.36505705,8.85263006 Z" id="c"></path>
                <path d="M20.8322113,16.7286978 C22.8976354,18.7943928 23.9168004,21.24852 23.9168004,24.1607143 C23.9168004,27.0530915 22.8991777,29.4878472 20.8309554,31.5404041 C18.7713306,33.616185 16.3368641,34.6339286 13.4448307,34.6339286 C10.5343902,34.6339286 8.09116216,33.6157959 6.03923532,31.5477169 C3.98325602,29.4914791 2.97286096,27.055276 2.97286096,24.1607143 C2.97286096,21.2463432 3.98478519,18.7907624 6.03923532,16.7201403 C7.60686387,15.1682372 9.41335296,14.2177539 11.4802348,13.8548231 C12.1168238,13.743407 12.7716563,13.6875 13.4448307,13.6875 C14.1652812,13.6875 14.8581178,13.7512167 15.5243441,13.878132 C17.5277076,14.2567668 19.287269,15.199501 20.8322113,16.7286978 Z M13.4448307,11.0089286 C12.6181832,11.0089286 11.8089041,11.0780216 11.017824,11.2164771 C8.4059578,11.6751033 6.1057921,12.8853343 4.14659422,14.8249728 C1.5859813,17.4056662 0.294607843,20.539371 0.294607843,24.1607143 C0.294607843,27.7661526 1.58751047,30.8835209 4.14177546,33.4380894 C6.69279506,36.0092041 9.82033352,37.3125 13.4448307,37.3125 C17.0520248,37.3125 20.1704698,36.008815 22.7247523,33.434426 C25.2915234,30.8871528 26.5950535,27.7683371 26.5950535,24.1607143 C26.5950535,20.5371943 25.2930657,17.4020357 22.7211033,14.8297677 C20.7972527,12.925499 18.5572894,11.725376 16.023573,11.2465066 C15.1918822,11.088069 14.331332,11.0089286 13.4448307,11.0089286 Z" id="b"></path>
                <polygon id="a" points="9.25877718 7.27697033 6.77995126 3.68559148 6.6946373 5.31802416 9.1050651 2.50552416 8.08832442 2.97321429 10.9808378 2.97321429 13.3912656 2.97321429 15.7481283 2.97321429 18.8013369 2.97321429 17.8544314 2.58094658 20.3987719 5.12558944 20.2297079 3.43829963 17.6184111 7.37579963 16.870249 8.49816938 16.4048524 9.18967451 14.6589414 11.8222282 16.8908803 13.3027718 18.6317449 10.6777718 19.0953927 9.98889692 19.8486012 8.85897348 22.4616468 4.91884323 23.0669943 4.00605696 22.2925828 3.23155342 19.7482424 0.686910561 19.3560213 0.294642857 18.8013369 0.294642857 15.7481283 0.294642857 13.3912656 0.294642857 10.9808378 0.294642857 8.08832442 0.294642857 7.47241335 0.294642857 7.07158374 0.762332982 4.66115593 3.57483298 3.9897919 4.35818411 4.57584197 5.20726566 7.0532261 8.79655138 10.1451667 13.2944582 12.3521595 11.7769703"></polygon>
            </g>
            <g id="Left" transform="translate(19.692077, 22.691692) scale(-1, 1) rotate(22.000000) translate(-19.692077, -22.691692) translate(6.192077, 3.691692)">
                <path d="M8.59449557,7.85382957 L8.34600398,8.84584307 L9.36852953,8.85266071 L13.3859092,8.87944643 L14.1947415,8.88483929 L14.1947415,8.07589286 L14.1947415,1.63392857 L12.5877897,1.63392857 L12.5877897,8.07589286 L13.396622,7.27233929 L9.37924231,7.24555357 L10.1532763,8.24438472 L11.7602281,1.82920614 L10.2014474,1.438651 L8.59449557,7.85382957 Z M16.8788356,8.32933295 L17.0462544,8.89886055 L17.6397694,8.90618877 L18.7244619,8.91958163 L18.7442993,7.31256123 L17.6596068,7.29916837 L18.4205406,7.87602419 L16.5189808,1.40727419 L14.9772758,1.86058295 L16.8788356,8.32933295 Z M17.2136426,9.46781222 L18.7552968,9.01433063 L18.4205152,7.87593778 L16.878861,8.32941937 L17.2136426,9.46781222 Z M17.512697,10.7410655 L17.5188538,9.13393447 L10.5286132,9.10714876 L10.5224563,10.7142798 L17.512697,10.7410655 Z M17.6446348,8.90623411 L17.6547413,7.29912304 L13.3963188,7.27233732 L13.3862124,8.87944839 L17.6446348,8.90623411 Z M9.36505705,8.85263006 L9.38271479,7.24558423 L8.16410962,7.23219137 L8.14645188,8.8392372 L9.36505705,8.85263006 Z" id="c"></path>
                <path d="M20.8322113,16.7286978 C22.8976354,18.7943928 23.9168004,21.24852 23.9168004,24.1607143 C23.9168004,27.0530915 22.8991777,29.4878472 20.8309554,31.5404041 C18.7713306,33.616185 16.3368641,34.6339286 13.4448307,34.6339286 C10.5343902,34.6339286 8.09116216,33.6157959 6.03923532,31.5477169 C3.98325602,29.4914791 2.97286096,27.055276 2.97286096,24.1607143 C2.97286096,21.2463432 3.98478519,18.7907624 6.03923532,16.7201403 C7.60686387,15.1682372 9.41335296,14.2177539 11.4802348,13.8548231 C12.1168238,13.743407 12.7716563,13.6875 13.4448307,13.6875 C14.1652812,13.6875 14.8581178,13.7512167 15.5243441,13.878132 C17.5277076,14.2567668 19.287269,15.199501 20.8322113,16.7286978 Z M13.4448307,11.0089286 C12.6181832,11.0089286 11.8089041,11.0780216 11.017824,11.2164771 C8.4059578,11.6751033 6.1057921,12.8853343 4.14659422,14.8249728 C1.5859813,17.4056662 0.294607843,20.539371 0.294607843,24.1607143 C0.294607843,27.7661526 1.58751047,30.8835209 4.14177546,33.4380894 C6.69279506,36.0092041 9.82033352,37.3125 13.4448307,37.3125 C17.0520248,37.3125 20.1704698,36.008815 22.7247523,33.434426 C25.2915234,30.8871528 26.5950535,27.7683371 26.5950535,24.1607143 C26.5950535,20.5371943 25.2930657,17.4020357 22.7211033,14.8297677 C20.7972527,12.925499 18.5572894,11.725376 16.023573,11.2465066 C15.1918822,11.088069 14.331332,11.0089286 13.4448307,11.0089286 Z" id="b"></path>
                <polygon id="a" points="9.25877718 7.27697033 6.77995126 3.68559148 6.6946373 5.31802416 9.1050651 2.50552416 8.08832442 2.97321429 10.9808378 2.97321429 13.3912656 2.97321429 15.7481283 2.97321429 18.8013369 2.97321429 17.8544314 2.58094658 20.3987719 5.12558944 20.2297079 3.43829963 17.6184111 7.37579963 16.870249 8.49816938 16.4048524 9.18967451 14.6589414 11.8222282 16.8908803 13.3027718 18.6317449 10.6777718 19.0953927 9.98889692 19.8486012 8.85897348 22.4616468 4.91884323 23.0669943 4.00605696 22.2925828 3.23155342 19.7482424 0.686910561 19.3560213 0.294642857 18.8013369 0.294642857 15.7481283 0.294642857 13.3912656 0.294642857 10.9808378 0.294642857 8.08832442 0.294642857 7.47241335 0.294642857 7.07158374 0.762332982 4.66115593 3.57483298 3.9897919 4.35818411 4.57584197 5.20726566 7.0532261 8.79655138 10.1451667 13.2944582 12.3521595 11.7769703"></polygon>
            </g>
        </g>
    </g>
</svg>