<?xml version="1.0" encoding="UTF-8" standalone="no"?>
<svg width="301px" height="194px" viewBox="0 0 301 194" version="1.1" xmlns="http://www.w3.org/2000/svg" xmlns:xlink="http://www.w3.org/1999/xlink">
    <!-- Generator: Sketch 39.1 (31720) - http://www.bohemiancoding.com/sketch -->
    <title>Title@1x</title>
    <desc>Created with Sketch.</desc>
    <defs></defs>
    <g id="Page-1" stroke="none" stroke-width="1" fill="none" fill-rule="evenodd">
        <path d="M266.461949,151.459861 C266.226515,151.735837 265.939376,152.014496 265.600531,152.295841 C264.860326,152.910435 263.832279,153.473805 262.516359,153.985967 C261.200439,154.498129 259.445906,154.779814 257.252707,154.83103 C257.910667,152.782382 258.212227,151.220311 258.157397,150.14477 C258.102567,149.06923 257.855836,148.288195 257.417196,147.801641 C256.978556,147.315086 256.457679,147.046205 255.854549,146.994989 C255.251419,146.943773 254.757957,146.918165 254.374147,146.918165 C253.277547,146.918165 252.372866,147.327889 251.660076,148.147348 C250.947286,148.966808 250.508653,149.914293 250.344163,150.989834 C250.179673,152.065374 250.316746,153.128095 250.755386,154.178027 C251.194025,155.227959 251.989048,155.983387 253.140478,156.444333 C252.427688,157.775955 251.591543,159.222791 250.632019,160.784885 C249.672494,162.34698 248.685569,163.793816 247.671214,165.125438 C246.656859,166.457059 245.64252,167.545387 244.628165,168.390455 C243.61381,169.235522 242.695422,169.581227 241.872972,169.427578 C240.721542,169.222713 239.899105,168.620932 239.405635,167.622215 C238.912165,166.623499 238.679141,165.355917 238.706556,163.819431 C238.733971,162.282944 238.994409,160.580031 239.487879,158.710639 C239.981349,156.841247 240.639299,154.946276 241.461749,153.025668 C242.284199,151.10506 243.230002,149.235696 244.299187,147.417521 C245.368371,145.599345 246.478662,143.998863 247.630092,142.616025 C248.288052,141.847782 248.959709,141.092354 249.645084,140.349719 C250.330459,139.607084 251.002116,139.018106 251.660076,138.582768 C252.318036,138.147431 252.934864,137.929765 253.510579,137.929765 C254.086294,137.929765 254.593463,138.288273 255.032103,139.0053 C254.648293,139.261381 254.333026,139.568674 254.086291,139.927187 C253.839556,140.285701 253.71619,140.669817 253.71619,141.079546 C253.71619,141.745357 253.976629,142.283119 254.497514,142.692849 C255.018398,143.102579 255.607812,143.30744 256.265772,143.30744 C257.197882,143.30744 257.883246,142.923325 258.321886,142.155081 C258.650866,141.796568 258.815354,141.20759 258.815354,140.388131 C258.705694,139.824753 258.541206,139.222971 258.321886,138.582768 C258.102566,137.942566 257.773591,137.353588 257.334951,136.815818 C256.896311,136.278048 256.334312,135.817109 255.648938,135.432987 C254.963563,135.048866 254.100003,134.8312 253.058234,134.779984 C250.755374,134.677551 248.5485,135.010452 246.437546,135.778695 C244.326591,136.546938 242.380156,137.64807 240.598181,139.082124 C238.816206,140.516178 237.212453,142.193484 235.786874,144.114092 C234.685943,145.597318 233.715825,147.149252 232.876503,148.769924 C232.791226,148.876196 232.719585,149.001574 232.66158,149.146059 C232.635197,149.215883 232.607405,149.287188 232.578201,149.359976 C232.437539,149.645097 232.300842,149.932304 232.168112,150.221594 C232.066542,150.442971 231.967585,150.664755 231.871242,150.886945 C231.625441,151.366756 231.34059,151.887604 231.016688,152.449489 C230.249069,153.78111 229.371802,155.189535 228.384862,156.674805 C227.397922,158.160075 226.356168,159.645323 225.259568,161.130593 C224.162969,162.615863 223.0938,163.960269 222.05203,165.16385 C221.01026,166.367431 220.064457,167.353328 219.214592,168.121571 C218.364728,168.889814 217.665656,169.299538 217.117356,169.350754 C216.185246,169.453186 215.787735,168.864209 215.92481,167.583803 C216.061885,166.303398 216.582762,164.574877 217.487456,162.398188 C218.392151,160.221499 219.570978,157.686334 221.023973,154.792618 C222.476968,151.898903 224.012184,148.889995 225.629669,145.765806 C227.247154,142.641617 228.850907,139.479064 230.440976,136.27805 C232.031046,133.077037 233.415483,130.093738 234.594327,127.328062 C235.773172,124.562387 236.664146,122.091242 237.267276,119.914552 C237.870406,117.737863 237.980064,116.086165 237.596254,114.959409 C237.102784,113.422922 236.266639,112.398614 235.087795,111.886451 C233.90895,111.374289 232.771245,111.14382 231.674645,111.195036 C230.578045,111.246252 229.659657,111.476722 228.919452,111.886451 C228.179247,112.296181 228.001052,112.654689 228.384862,112.961986 C228.768672,113.3205 228.57677,114.575278 227.80915,116.726359 C227.04153,118.87744 225.958654,121.553447 224.56049,124.75446 C223.162325,127.955474 221.585986,131.463731 219.831427,135.279339 C218.076867,139.094947 216.404578,142.833674 214.814508,146.495634 C214.14589,148.035472 213.516056,149.52323 212.925001,150.958915 C212.686104,151.428691 212.41125,151.938352 212.100437,152.4879 C211.332817,153.84513 210.455551,155.266359 209.468611,156.751629 C208.481671,158.236899 207.42621,159.734951 206.302195,161.245829 C205.17818,162.756707 204.095304,164.113916 203.053534,165.317497 C202.011764,166.521078 201.052254,167.494172 200.174974,168.236807 C199.297694,168.979442 198.61233,169.350754 198.11886,169.350754 C197.02226,169.350754 196.432847,168.979442 196.350602,168.236807 C196.268357,167.494172 196.473966,166.508275 196.967436,165.279085 C197.460906,164.049896 198.159978,162.60306 199.064673,160.938533 C199.969367,159.274006 200.874049,157.519877 201.778743,155.676094 C202.683438,153.83231 203.492168,151.950143 204.204958,150.029535 C204.917748,148.108927 205.328967,146.277975 205.438627,144.536623 C205.822437,141.719732 205.493462,139.415037 204.451692,137.622469 C203.409922,135.829902 201.819876,134.959239 199.681507,135.010456 C197.926947,135.061672 196.049048,135.778688 194.047754,137.161526 C192.046459,138.544363 190.086316,140.234473 188.167267,142.231905 C189.647676,139.312581 191.073235,136.418909 192.443985,133.550801 C193.814734,130.682693 194.993561,128.032294 195.980501,125.599524 C196.967441,123.166754 197.707635,121.028509 198.201105,119.184725 C198.694574,117.340941 198.776818,115.932517 198.447838,114.959409 C197.954368,113.422922 197.131931,112.398614 195.980501,111.886451 C194.829071,111.374289 193.691366,111.14382 192.567351,111.195036 C191.443337,111.246252 190.511241,111.476722 189.771036,111.886451 C189.030831,112.296181 188.852636,112.654689 189.236446,112.961986 C189.565426,113.269284 189.483182,114.216769 188.989713,115.804472 C188.496243,117.392175 187.728634,119.389577 186.686865,121.796739 C185.645095,124.203901 184.425146,126.931123 183.026981,129.978488 C181.628816,133.025852 180.175844,136.162798 178.668019,139.38942 C177.160194,142.616041 175.693514,145.817006 174.267934,148.992411 C173.85185,149.919217 173.450948,150.827476 173.065227,151.71719 C171.385597,154.69112 169.634446,157.560016 167.811735,160.323942 C165.700781,163.524955 163.535029,166.521058 161.314414,169.312342 C159.0938,172.103626 156.845804,174.651594 154.570359,176.956323 C152.294915,179.261053 150.060626,181.258455 147.867427,182.94859 C144.961438,185.150887 142.233687,186.661743 139.684092,187.481202 C137.134498,188.300662 134.817965,188.543935 132.734426,188.21103 C130.650886,187.878124 128.841524,187.007462 127.306284,185.599016 C125.771044,184.19057 124.605925,182.372422 123.81089,180.144517 C123.015855,177.916611 122.618344,175.343035 122.618344,172.423711 C122.618344,169.504387 123.111806,166.354637 124.098746,162.974367 C124.592216,161.233016 125.263873,159.235614 126.113738,156.982101 C126.963603,154.728587 127.950528,152.385481 129.074542,149.952711 C130.198557,147.519941 131.473335,145.061599 132.898915,142.577613 C134.324495,140.093627 135.859711,137.776128 137.504611,135.625047 C139.69781,132.756939 141.890977,130.247382 144.084177,128.096301 C146.277376,125.945221 148.319763,124.242307 150.211397,122.98751 C152.103032,121.732713 153.734199,120.990089 155.104949,120.759616 C156.475699,120.529143 157.462624,120.900455 158.065754,121.873563 C158.723714,123.051536 159.025274,124.549587 158.970444,126.367763 C158.915614,128.185938 158.559224,130.068106 157.901265,132.014322 C157.243305,133.960538 156.324916,135.829902 155.146071,137.622469 C153.967227,139.415037 152.610205,140.874677 151.074965,142.001433 C150.252515,142.616028 150.088028,143.32024 150.581498,144.114092 C151.074968,144.907943 151.856283,145.599351 152.925468,146.188338 C153.994653,146.777324 155.159773,147.16144 156.420862,147.340697 C157.681952,147.519954 158.696292,147.302288 159.463911,146.687693 C161.876431,144.690261 163.617257,142.321547 164.686442,139.58148 C165.755626,136.841412 166.290211,134.126994 166.290211,131.438143 C166.290211,128.749291 165.824163,126.239735 164.892053,123.909397 C163.959943,121.579059 162.726287,119.799323 161.191047,118.570134 C159.217168,116.982431 157.07883,116.034945 154.775971,115.727648 C152.473111,115.420351 150.211408,115.497174 147.990794,115.95812 C145.770179,116.419066 143.714086,117.110474 141.822451,118.032366 C139.930816,118.954258 138.409307,119.876136 137.257877,120.798028 C133.748758,123.563703 130.623496,126.444572 127.881996,129.44072 C125.140497,132.436869 122.686892,135.612226 120.521107,138.966888 C118.355322,142.32155 116.450009,145.932239 114.805109,149.799063 C113.16021,153.665887 111.652408,157.852749 110.281658,162.359776 C109.514038,164.971803 109.034283,167.686221 108.842378,170.503113 C108.650473,173.320005 108.856082,176.021619 109.459212,178.608038 C110.062342,181.194457 111.104096,183.588779 112.584506,185.791076 C114.064916,187.993373 116.06618,189.785913 118.58836,191.168751 C120.013939,192.039427 121.57657,192.67962 123.2763,193.08935 C124.97603,193.499079 126.703148,193.703941 128.457708,193.703941 C129.938118,193.703941 131.459627,193.575902 133.022282,193.319821 C134.584936,193.06374 136.079031,192.654017 137.504611,192.090638 C141.56203,190.707801 145.674218,188.454321 149.841297,185.330132 C154.282526,181.949862 158.61403,177.673373 162.835939,172.500535 C163.987369,171.117698 165.166196,169.594038 166.372455,167.929511 C166.914621,167.181373 167.456783,166.41772 167.998945,165.638548 C167.605031,167.384861 167.556337,168.673468 167.852858,169.504402 C168.346328,171.040888 169.072814,172.090805 170.032339,172.654183 C170.991864,173.217561 171.923959,173.486443 172.828654,173.460834 C173.733349,173.435226 174.473543,173.204757 175.049258,172.769419 C175.624973,172.334081 175.803167,171.911554 175.583847,171.501824 C175.145208,170.733581 175.433061,169.069079 176.447415,166.508268 C177.46177,163.947458 178.846207,160.848923 180.600766,157.212572 L180.765255,156.905277 L180.765255,156.828453 L181.834435,154.754207 C182.711715,153.268936 183.863127,151.617238 185.288707,149.799063 C186.714287,147.980887 188.167259,146.26517 189.647669,144.651859 C191.128079,143.038549 192.53993,141.694143 193.883265,140.618603 C195.226599,139.543062 196.254646,138.979692 196.967436,138.928476 C198.118866,138.87726 198.763108,139.158945 198.900183,139.773539 C199.037258,140.388134 198.886478,141.2716 198.447838,142.423965 C198.009198,143.57633 197.351248,144.933539 196.473969,146.495634 C195.596689,148.057728 194.705715,149.773445 193.80102,151.642837 C192.896325,153.512229 192.06018,155.47122 191.292561,157.519868 C190.524941,159.568517 190.004064,161.642742 189.729914,163.742607 C189.565424,164.92058 189.579131,166.085731 189.771036,167.238096 C189.962941,168.390461 190.305623,169.427573 190.799093,170.349465 C191.292563,171.271357 191.923098,172.001177 192.690718,172.538947 C193.458338,173.076717 194.390434,173.319991 195.487034,173.268775 C196.802953,173.268775 198.173683,172.807836 199.599262,171.885944 C201.024842,170.964052 202.436693,169.786097 203.834858,168.352043 C205.233022,166.917989 206.590044,165.33031 207.905964,163.588959 C208.253313,163.129313 208.593976,162.670561 208.927952,162.212702 C208.799653,162.773659 208.705725,163.283627 208.646165,163.742607 C208.481675,165.125445 208.481675,166.418634 208.646165,167.622215 C208.810655,168.825796 209.13963,169.850105 209.6331,170.695173 C210.12657,171.54024 210.770813,172.193237 211.565847,172.654183 C212.360882,173.115129 213.306685,173.319991 214.403285,173.268775 C215.719205,173.268775 217.089934,172.807836 218.515514,171.885944 C219.941093,170.964052 221.352944,169.786097 222.751109,168.352043 C224.149274,166.917989 225.506296,165.33031 226.822215,163.588959 C227.734686,162.38149 228.601013,161.18019 229.421207,159.985041 C229.305342,161.081837 229.261457,162.155101 229.289552,163.204839 C229.399212,165.919298 230.235357,168.223993 231.798012,170.118993 C233.360667,172.013993 235.512711,173.089517 238.254211,173.345599 C240.33775,173.499247 242.297893,173.038308 244.134698,171.962768 C245.971502,170.887227 247.657499,169.517214 249.192739,167.852687 C250.727978,166.18816 252.085,164.382816 253.263845,162.4366 C254.44269,160.490384 255.415907,158.723451 256.183527,157.135748 C257.718767,157.186965 259.240276,157.058926 260.748101,156.751629 C262.255926,156.444332 263.626655,156.009 264.860329,155.445622 C264.902797,155.426229 264.945085,155.406683 264.987195,155.386987 C264.748319,156.159655 264.527834,156.960243 264.32574,157.788752 C263.83227,159.811792 263.667782,161.770783 263.832272,163.665783 C263.996762,165.560783 264.558761,167.289304 265.518286,168.851398 C266.477811,170.413493 268.054149,171.604252 270.247349,172.423711 C272.221228,173.191955 274.222493,173.422424 276.251203,173.115127 C278.279912,172.807829 280.267469,172.142029 282.213934,171.117704 C284.160399,170.09338 286.038298,168.774583 287.847687,167.161272 C289.657077,165.547961 291.370488,163.781028 292.987973,161.86042 C294.605458,159.939812 296.05843,157.968018 297.346935,155.944977 C298.63544,153.921937 299.74573,151.988554 300.67784,150.14477 C301.00682,149.427744 300.842333,148.864374 300.184373,148.454644 C299.745733,148.198563 299.320807,148.147347 298.909582,148.300996 C298.498357,148.454645 298.210504,148.73633 298.046014,149.146059 C297.497714,150.477681 296.743813,151.924517 295.784288,153.486612 C294.824763,155.048706 293.72818,156.623581 292.494505,158.211284 C291.260831,159.798986 289.944931,161.309842 288.546766,162.743896 C287.148601,164.17795 285.723043,165.432728 284.270048,166.508268 C282.817054,167.583809 281.391495,168.390452 279.993331,168.928222 C278.595166,169.465993 277.292973,169.632443 276.086713,169.427578 C275.264264,169.273929 274.647436,168.838598 274.236211,168.121571 C273.824986,167.404544 273.564547,166.508274 273.454887,165.432733 C273.345227,164.357193 273.372642,163.166434 273.537132,161.86042 C273.701622,160.554407 273.975768,159.235609 274.359577,157.903988 C277.210737,157.186961 279.787708,156.12424 282.090567,154.715795 C284.393427,153.307349 286.353569,151.745278 287.971054,150.029535 C289.588539,148.313791 290.835902,146.559663 291.713182,144.767095 C292.590462,142.974528 293.029095,141.335633 293.029095,139.850363 C293.029095,138.365093 292.54934,137.16153 291.589815,136.239638 C290.63029,135.317747 289.136196,134.856808 287.107486,134.856808 C285.133606,134.856808 283.187171,135.189708 281.268121,135.855519 C279.349072,136.52133 277.48488,137.545638 275.675491,138.928476 C273.866101,140.311314 272.15269,142.091051 270.535205,144.26774 C269.050383,146.265901 267.692642,148.663255 266.461949,151.459861 Z M210.043411,67.6094965 C209.635994,68.2161761 209.220421,68.8240389 208.796691,69.4330861 C207.191407,71.7404391 205.535982,73.8441706 203.830366,75.7443436 C202.124751,77.6445166 200.40244,79.2053496 198.663382,80.4268894 C196.924323,81.6484292 195.252177,82.25919 193.646892,82.25919 C192.309154,82.3270533 191.155373,82.0556041 190.185514,81.4448342 C189.215654,80.8340643 188.429745,79.9688199 187.827764,78.8490751 C187.225782,77.7293302 186.824467,76.3720842 186.623806,74.7772961 C186.423145,73.182508 186.423145,71.4689848 186.623806,69.6366751 C186.692271,69.0635894 186.777162,68.481618 186.878477,67.8907597 C186.531871,68.4040222 186.179435,68.9181308 185.821168,69.4330861 C184.215883,71.7404391 182.560458,73.8441706 180.854842,75.7443436 C179.149227,77.6445166 177.426916,79.2053496 175.687858,80.4268894 C173.948799,81.6484292 172.276653,82.25919 170.671368,82.25919 C169.333631,82.3270533 168.179849,82.0556041 167.20999,81.4448342 C166.24013,80.8340643 165.454221,79.9688199 164.85224,78.8490751 C164.250258,77.7293302 163.848943,76.3720842 163.648282,74.7772961 C163.447621,73.182508 163.447621,71.4689848 163.648282,69.6366751 C163.915829,66.9900055 164.551245,64.1737199 165.554548,61.1877337 C166.557851,58.2017475 167.661468,55.2667028 168.865432,52.3825116 C170.069395,49.4983204 171.239898,46.8007938 172.376974,44.2898508 C173.514051,41.7789079 174.350125,39.6412453 174.885219,37.8767989 C173.480595,38.4197055 171.892056,38.7420514 170.119554,38.8438464 C168.347052,38.9456414 166.591298,38.75902 164.85224,38.2839768 C164.651579,38.75902 164.300428,39.6242644 163.798777,40.8797359 C163.297125,42.1352074 162.745317,43.4924535 162.143335,44.9515149 C161.541353,46.4105763 160.93938,47.8356847 160.337399,49.2268829 C159.921034,50.1891144 159.55267,50.9971292 159.232301,51.6509378 C159.22183,51.9243703 159.155433,52.185193 159.033111,52.4334088 C157.427826,55.7587116 155.571744,58.9821711 153.464807,62.1038839 C151.357871,65.2255968 149.033587,68.2454693 146.491886,71.1635922 C144.819715,73.0637652 143.047239,74.8112196 141.174407,76.4060077 C139.301575,78.0007958 137.211392,79.3241107 134.903795,80.3759922 C132.596198,81.4278737 130.037813,82.1573935 127.228565,82.5645734 C124.419317,82.9717533 121.275681,82.9717533 117.797564,82.5645734 L116.292617,82.5645734 C115.489975,82.4967101 114.63718,82.3440199 113.734207,82.1064983 C112.831234,81.8689766 111.995161,81.4787684 111.225962,80.9358618 C110.456763,80.3929552 109.804626,79.6634355 109.269531,78.7472806 C108.734436,77.8311257 108.466893,76.6944321 108.466893,75.3371657 C108.466893,73.8441726 108.767879,72.8601692 109.369861,72.3851259 C110.038729,71.7064927 110.774474,71.3671812 111.577116,71.3671812 C112.379759,71.3671812 113.098782,71.6386304 113.734207,72.181537 C114.369632,72.7244435 114.68734,73.4369977 114.68734,74.3192209 C114.68734,75.6086241 114.11881,76.5247652 112.981734,77.0676718 C113.383055,77.8820316 113.951585,78.2892055 114.68734,78.2892055 C115.556869,78.3570688 116.576879,77.9329294 117.747399,77.0167745 C118.917919,76.1006197 120.155308,74.7773047 121.459602,73.04679 C122.763895,71.3162753 124.118334,69.1955782 125.522958,66.6846353 C126.927583,64.1736924 128.332186,61.3234756 129.73681,58.1338994 C130.606339,56.1658631 131.325362,54.0112349 131.893901,51.6699503 C132.462439,49.3286656 132.796868,47.1061751 132.897199,45.0024121 C132.997529,42.8986491 132.813593,41.0833325 132.345385,39.5564077 C131.877177,38.029483 131.00766,37.0963763 129.73681,36.7570597 C128.599733,36.4856064 127.412509,36.6891933 126.175102,37.3678265 C124.937695,38.0464597 123.700307,39.0474287 122.4629,40.3707635 C121.225493,41.6940983 119.988104,43.2718969 118.750697,45.1042066 C117.51329,46.9365163 116.326066,48.8366609 115.188989,50.8046972 C113.851252,54.33359 112.262713,58.1508446 110.423324,62.2565756 C108.583935,66.3623067 106.677688,70.5358384 104.704525,74.7772961 C102.731363,79.0187537 100.808394,83.1413887 98.9355617,87.1453248 C97.0627295,91.1492608 95.4240258,94.8138253 94.0194016,98.1391281 C92.6147774,101.464431 91.561325,104.280717 90.8590129,106.58807 C90.1567008,108.895422 90.0062076,110.456255 90.4075288,111.270615 C90.6750763,111.813522 90.4576973,112.373386 89.7553852,112.950224 C89.053073,113.527062 88.1501139,113.832443 87.0464806,113.866374 C85.9428473,113.900306 84.8057876,113.544029 83.6352674,112.797532 C82.4647473,112.051036 81.5785096,110.659859 80.9765278,108.623959 C80.5752066,107.402419 80.6922568,105.434412 81.3276821,102.719879 C81.9631073,100.005347 82.9329523,96.8327838 84.2372462,93.202096 C85.5415401,89.5714083 87.0631935,85.6523602 88.8022521,81.4448342 C90.5413106,77.2373082 92.3305075,72.9959141 94.1698963,68.7205248 C96.0092851,64.4451355 97.7817605,60.2885693 99.4873756,56.2507016 C99.6788748,55.7973472 99.8676333,55.3493402 100.053651,54.9066804 C99.5534934,55.5685262 98.8752919,56.134731 98.0325936,56.3015989 C95.5995771,56.7833753 91.9793838,55.7247683 87.6986243,54.7746817 C85.324141,60.5430642 83.1837934,66.2604633 81.1771874,71.9270508 C79.1705813,77.5936382 77.4984348,83.0735193 76.1606974,88.3668585 C75.7593762,89.9955782 75.4082254,91.9975162 75.1072345,94.3727325 C74.8062436,96.7479488 74.6724719,99.2249229 74.7059153,101.803729 C74.7393588,104.382535 74.9567378,106.910406 75.358059,109.387418 C75.7593802,111.864429 76.4616818,114.052988 77.4649848,115.953161 C78.4682878,117.853334 79.7892836,119.312374 81.4280119,120.330324 C83.0667401,121.348273 85.1234804,121.653654 87.5982945,121.246474 C88.2671631,121.178611 88.8022501,121.263438 89.2035713,121.50096 C89.6048925,121.738482 89.8557144,122.043862 89.9560448,122.41711 C90.0563751,122.790359 89.9894892,123.180567 89.7553852,123.587747 C89.5212811,123.994927 89.1032445,124.300307 88.5012627,124.503897 C84.9562587,125.657574 81.4447509,125.929023 77.9666338,125.318253 C74.4885167,124.707483 71.3950455,123.384168 68.6861274,121.348268 C65.9772093,119.312369 63.8034187,116.665739 62.1646905,113.408299 C60.5259622,110.15086 59.7734963,106.452364 59.90727,102.312702 C59.90727,97.8337223 60.7099004,92.3708067 62.3151852,85.9237911 C63.7866962,80.4268619 65.5758931,74.7603595 67.6828294,68.9241138 C69.7897657,63.087868 72.0137207,57.2177787 74.354761,51.3136696 C71.6123995,50.567173 68.8700791,49.769791 66.1277175,48.9214994 C63.385356,48.0732079 60.6764785,47.2418947 58.0010038,46.4275348 C55.8606241,50.2278809 53.6366691,53.8924453 51.3290722,57.4213381 C49.0214753,60.9502309 46.5968627,64.2415526 44.0551618,67.2954022 C36.4969458,76.1176341 28.5040851,80.5626151 20.0763399,80.6304784 C13.1201067,80.6304784 7.90300934,78.1535043 4.22423166,73.1994817 C2.61894685,71.0278554 1.4651657,68.5339157 0.762853597,65.7175878 C0.0605414936,62.9012599 -0.156837563,59.8644218 0.110709905,56.6069823 C0.378257373,53.0780895 1.1976092,49.6340775 2.56878998,46.2748431 C3.93997075,42.9156086 5.76261053,39.9127016 8.03676401,37.266032 C10.4446912,34.4157725 13.3207834,32.1763164 16.6651267,30.5475967 C20.0094701,28.7831503 23.8219643,27.833078 28.1027238,27.6973514 C32.7179176,27.4937614 36.3631972,28.4438337 39.0386718,30.5475967 C41.3797122,32.4477697 42.7174295,34.9247438 43.0518638,37.9785934 C45.2591304,38.8268834 47.399478,39.3358507 49.4729709,39.8108939 C51.5464638,40.2859372 53.7871402,40.8966979 56.1950674,41.6431945 C59.0043159,36.7570352 61.8302436,31.8370181 64.6729354,26.8829956 C67.5156273,21.928973 70.4753268,17.6197167 73.5521226,13.9550973 C75.0905206,12.1227876 76.5787311,10.5280234 78.0167987,9.17075694 C79.4548663,7.81349049 80.9430768,6.65983131 82.4814747,5.7097448 C85.9595918,3.53811847 89.5045426,2.4523216 93.1164334,2.4523216 C95.9925687,2.4523216 98.0994734,3.47025617 99.4372107,5.50615585 C100.507401,7.20273891 100.992323,9.49309169 100.891993,12.3772829 C100.791663,15.2614741 100.072639,19.0447976 98.7349021,23.7273669 C97.5978254,27.6634396 96.1765008,31.9217992 94.4708857,36.5025735 C92.7652706,41.0833478 90.9426308,45.8846058 89.0029117,50.9064917 C90.8088571,51.2458083 92.4141178,51.5342231 93.818742,51.7717447 C95.2233662,52.0092664 96.4941976,52.1619565 97.6312744,52.2298199 C99.1696723,52.3655465 100.256568,52.3485809 100.891993,52.1789226 C101.013965,52.1463562 101.0734,52.2604446 101.072605,52.4694936 C102.132019,49.9218616 103.09183,47.5685716 103.952052,45.40959 C105.222902,42.2200139 106.159304,39.573384 106.761286,37.469621 C107.363268,35.365858 107.463597,34.1104054 107.062275,33.7032254 C106.594067,33.2960455 106.811446,32.8210093 107.714419,32.2781028 C108.617392,31.7351962 109.754452,31.4298158 111.125632,31.3619525 C112.496813,31.2940892 113.884695,31.5994695 115.289319,32.2781028 C116.693943,32.956736 117.697231,34.3139821 118.299213,36.3498818 C118.499874,37.0963783 118.533316,38.1821752 118.399543,39.607305 C120.941244,36.4855921 123.717007,34.1952393 126.726916,32.7361779 C129.736825,31.2771165 133.114561,31.294082 136.860226,32.7870751 C139.5357,33.9407516 141.458669,35.5524814 142.629189,37.6223127 C143.799709,39.692144 144.485289,41.9655313 144.68595,44.4425425 C144.886611,46.9195538 144.685953,49.4983214 144.083971,52.1789226 C143.481989,54.8595239 142.746245,57.3195324 141.876716,59.5590221 C140.137657,63.970138 138.197967,67.7025648 136.057587,70.7564143 C133.917208,73.8102638 131.676531,76.2533068 129.335491,78.0856165 C132.679834,77.33912 135.639534,75.897046 138.214678,73.7593513 C140.789822,71.6216567 143.247878,69.127717 145.588918,66.2774574 C147.796185,63.6307878 149.786039,60.9332612 151.558541,58.1847967 C153.235712,55.584154 154.628407,53.211394 155.736663,51.0664534 C155.940284,50.4552427 156.303345,49.5366778 156.825856,48.3107326 C157.360951,47.0552611 157.896038,45.7319462 158.431132,44.3407481 C158.966227,42.9495499 159.501314,41.5923038 160.036409,40.2689691 C160.571504,38.9456343 160.939376,37.8428718 161.140037,36.9606486 C159.601639,36.2141521 158.280643,35.0265617 157.17701,33.397842 C156.073377,31.7691222 155.521568,30.1404269 155.521568,28.5117072 C155.521568,26.4079442 156.056655,24.6095931 157.126845,23.1166 C158.197035,21.6236069 159.802296,20.8771216 161.942675,20.8771216 C163.280413,20.8771216 164.434194,21.4369856 165.404053,22.5567304 C166.373913,23.6764752 166.892278,25.0167557 166.959165,26.5776122 C166.959165,27.4598354 166.909001,28.6813568 166.808671,30.2422133 C166.70834,31.8030697 166.524404,33.0924535 166.256857,34.1104033 C166.591291,34.3818566 167.042771,34.5515124 167.611309,34.6193757 C168.179847,34.687239 168.798542,34.7211702 169.46741,34.7211702 C170.938921,34.7211702 172.092703,34.5515144 172.928788,34.2121978 C173.764874,33.8728812 174.483897,33.5166041 175.085879,33.1433558 C175.687861,32.7701075 176.289834,32.4138304 176.891815,32.0745138 C177.493797,31.7351972 178.296428,31.5655414 179.299731,31.5655414 C180.637468,31.5655414 181.975185,31.904853 183.312923,32.5834862 C184.65066,33.2621194 185.620505,34.5854344 186.222487,36.5534707 C186.824469,38.5215071 186.72414,40.9136533 185.921497,43.7299812 C185.118855,46.5463091 183.998517,49.4813538 182.560449,52.5352033 C181.122381,55.5890528 179.584007,58.6089254 177.945278,61.5949116 C176.30655,64.5808978 174.93539,67.2444932 173.831757,69.5857778 C172.728123,71.9270625 172.092708,73.7932759 171.92549,75.184474 C171.758273,76.5756721 172.443853,77.2033984 173.982251,77.0676718 C174.584233,76.9998084 175.420306,76.45691 176.490496,75.4389602 C177.560686,74.4210103 178.731189,73.114661 180.002039,71.5198729 C181.27289,69.9250848 182.577164,68.1436993 183.914901,66.1756629 C185.252639,64.2076266 186.52347,62.2396197 187.727434,60.2715834 C188.931397,58.303547 190.001571,56.4373337 190.937987,54.6728873 C190.968713,54.6149925 190.99915,54.5574266 191.0293,54.5001894 C191.97078,52.1590587 192.92691,49.8923374 193.897716,47.6999657 C194.934463,45.3586811 195.837422,43.2379841 196.606621,41.337811 C197.37582,39.437638 197.910907,37.8428738 198.211898,36.5534707 C198.512889,35.2640676 198.429281,34.3818576 197.961073,33.9068144 C197.492865,33.4996344 197.710244,33.0245983 198.613217,32.4816917 C199.51619,31.9387851 200.636528,31.6334048 201.974265,31.5655414 C203.312002,31.4976781 204.699884,31.8030585 206.137952,32.4816917 C207.576019,33.1603249 208.596029,34.517571 209.198011,36.5534707 C209.799992,38.5215071 209.699664,40.9136533 208.897021,43.7299812 C208.094379,46.5463091 206.974041,49.4813538 205.535973,52.5352033 C204.097905,55.5890528 202.55953,58.6089254 200.920802,61.5949116 C199.282074,64.5808978 197.910914,67.2444932 196.80728,69.5857778 C195.703647,71.9270625 195.068231,73.7932759 194.901014,75.184474 C194.733797,76.5756721 195.419377,77.2033984 196.957775,77.0676718 C197.626644,76.9998084 198.479439,76.45691 199.516185,75.4389602 C200.552932,74.4210103 201.706713,73.114661 202.977563,71.5198729 C204.248414,69.9250848 205.552688,68.1436993 206.890425,66.1756629 C208.228163,64.2076266 209.498994,62.2396197 210.702958,60.2715834 C211.906921,58.303547 212.977095,56.4373337 213.913511,54.6728873 C214.307692,53.9301497 214.654463,53.241529 214.953826,52.6070219 C215.664866,50.7327778 216.421721,48.7917121 217.224395,46.7838155 C219.164114,41.9315879 221.204133,36.9776396 223.344512,31.9218221 C225.484892,26.8660046 227.407861,22.2174367 229.113476,17.975979 C230.819091,13.7345214 232.140087,10.1887159 233.076503,7.3384564 C234.012919,4.48819684 234.247019,2.82557038 233.778811,2.35052712 C233.310603,1.94334718 233.527982,1.46831105 234.430955,0.925404471 C235.333928,0.38249789 236.454266,0.0771175188 237.792003,0.00925419614 C239.129741,-0.0586091265 240.517622,0.246771245 241.95569,0.925404471 C243.393758,1.6040377 244.413767,2.96128379 245.015749,4.99718347 C245.483957,6.49017657 245.350185,8.67873589 244.61443,11.5629271 C243.878674,14.4471183 242.791779,17.7214745 241.353711,21.3860939 C239.915644,25.0507134 238.226775,29.0036926 236.287056,33.2451503 C234.347337,37.4866079 232.390926,41.6771053 230.417763,45.8167679 C228.444601,49.9564306 226.571796,53.943341 224.799294,57.7776188 C223.026792,61.6118965 221.588746,64.9710806 220.485113,67.8552718 C219.38148,70.739463 218.746064,73.0298158 218.578847,74.7263988 C218.41163,76.4229819 218.896552,77.2033984 220.033629,77.0676718 C220.702498,76.9998084 221.555292,76.45691 222.592039,75.4389602 C223.628785,74.4210103 224.782566,73.114661 226.053417,71.5198729 C227.324267,69.9250848 228.628542,68.1436993 229.966279,66.1756629 C231.304016,64.2076266 232.574848,62.2396197 233.778811,60.2715834 C234.982775,58.303547 236.052949,56.4373337 236.989365,54.6728873 C237.925781,52.9084409 238.59464,51.4494013 238.995961,50.2957248 C239.196622,49.7528183 239.531051,49.4135067 239.999259,49.2777801 C240.467467,49.1420534 240.902225,49.1420534 241.303546,49.2777801 C241.704867,49.4135067 242.022575,49.684956 242.256679,50.0921359 C242.490783,50.4993158 242.474062,50.9404208 242.206514,51.4154641 C241.67142,52.5691405 240.902232,54.1469391 239.898929,56.1489072 C238.895626,58.1508752 237.708402,60.2885378 236.337221,62.5619591 C234.96604,64.8353804 233.47783,67.1257332 231.872545,69.4330861 C230.26726,71.7404391 228.611835,73.8441706 226.90622,75.7443436 C225.200605,77.6445166 223.478294,79.2053496 221.739236,80.4268894 C220.000177,81.6484292 218.32803,82.25919 216.722746,82.25919 C215.385008,82.3270533 214.231227,82.0556041 213.261368,81.4448342 C212.291508,80.8340643 211.505599,79.9688199 210.903617,78.8490751 C210.301635,77.7293302 209.90032,76.3720842 209.69966,74.7772961 C209.498999,73.182508 209.498999,71.4689848 209.69966,69.6366751 C209.772316,69.0285098 209.886899,68.3527842 210.043411,67.6094965 Z M276.086713,153.294552 C275.812564,153.85793 275.593247,154.370085 275.428757,154.83103 C278.718556,153.75549 281.418893,152.283046 283.529847,150.413654 C285.640802,148.544263 287.21714,146.700507 288.25891,144.882331 C289.30068,143.064155 289.835264,141.489281 289.862679,140.157659 C289.890094,138.826038 289.410339,138.134629 288.423399,138.083413 C286.942989,138.032197 285.078798,139.363798 282.830768,142.078257 C280.582739,144.792717 278.334743,148.531444 276.086713,153.294552 Z M273.372643,127.712182 C273.372643,126.841506 273.729032,126.098882 274.441822,125.484288 C275.154612,124.869693 276.031879,124.5624 277.073648,124.5624 C278.115418,124.5624 278.992685,124.869693 279.705475,125.484288 C280.418264,126.098882 280.774654,126.841506 280.774654,127.712182 C280.774654,128.582857 280.418264,129.325481 279.705475,129.940076 C278.992685,130.55467 278.115418,130.861963 277.073648,130.861963 C276.031879,130.861963 275.154612,130.55467 274.441822,129.940076 C273.729032,129.325481 273.372643,128.582857 273.372643,127.712182 Z M284.886883,127.712182 C284.886883,126.841506 285.243272,126.098882 285.956062,125.484288 C286.668852,124.869693 287.546119,124.5624 288.587888,124.5624 C289.629658,124.5624 290.506925,124.869693 291.219715,125.484288 C291.932504,126.098882 292.288894,126.841506 292.288894,127.712182 C292.288894,128.582857 291.932504,129.325481 291.219715,129.940076 C290.506925,130.55467 289.629658,130.861963 288.587888,130.861963 C287.546119,130.861963 286.668852,130.55467 285.956062,129.940076 C285.243272,129.325481 284.886883,128.582857 284.886883,127.712182 Z M280.058809,87.8345014 C280.282614,88.3228021 280.445378,88.8110956 280.547107,89.2993964 C280.648837,89.7876971 280.699701,90.3065089 280.699701,90.8558473 C280.699701,94.6605242 278.782132,98.0785784 274.946936,101.110112 C271.11174,104.141646 266.650976,105.657391 261.564509,105.657391 C257.108765,105.657391 253.400786,104.370534 250.440463,101.796782 C247.48014,99.2230299 246,96.0135177 246,92.1681491 C246,88.5669309 247.241079,85.6371701 249.723275,83.378779 C252.20547,81.1203879 255.816807,79.6555076 260.557394,78.984094 C258.543153,78.5364849 256.966373,77.6616258 255.827004,76.3594904 C254.687636,75.057355 254.11796,73.4500557 254.11796,71.5375444 C254.11796,68.6891231 255.409903,66.2781742 257.993828,64.3046252 C260.577753,62.3310762 263.772006,61.3443166 267.576683,61.3443166 C270.180954,61.3443166 272.373188,61.9038195 274.153451,63.0228421 C275.933714,64.1418647 276.823833,65.4541534 276.823833,66.9597474 C276.823833,67.5904693 276.635636,68.1245402 276.259238,68.5619764 C275.882839,68.9994125 275.297904,69.3605462 274.504415,69.6453883 L272.703815,70.2862799 C272.113785,68.5161895 271.335568,67.1988145 270.369139,66.3341152 C269.40271,65.4694159 268.237927,65.0370727 266.874754,65.0370727 C265.165701,65.0370727 263.761858,65.5965757 262.663181,66.7155983 C261.564504,67.8346209 261.015174,69.2486373 261.015174,70.9576901 C261.015174,72.6260511 261.518726,74.0298947 262.525847,75.1692632 C263.532967,76.3086317 264.962243,77.0919358 266.813717,77.519199 L266.264381,80.1438025 C262.520742,80.4896823 259.570635,81.63412 257.413974,83.5771502 C255.257312,85.5201804 254.178997,88.0074252 254.178997,91.0389592 C254.178997,93.9280721 255.145411,96.3135891 257.078269,98.1955817 C259.011126,100.077574 261.483111,101.018556 264.4943,101.018556 C267.708946,101.018556 270.389474,100.067402 272.535963,98.1650631 C274.682452,96.2627246 275.75568,93.9280715 275.75568,91.1610338 C275.75568,90.5710037 275.694643,90.0064144 275.572568,89.4672489 C275.450493,88.9280835 275.25721,88.3838397 274.992714,87.8345014 C274.890984,87.8345014 274.738393,87.8243286 274.534934,87.8039827 C273.436257,87.7429451 272.71399,87.7124268 272.36811,87.7124268 C269.90626,87.7124268 268.136197,87.9514871 267.057866,88.429615 C265.979535,88.9077428 265.440378,89.6757877 265.440378,90.7337727 C265.440378,91.2424194 265.57771,91.7205401 265.852379,92.1681491 C266.127048,92.6157581 266.549219,93.0531877 267.118903,93.4804509 L266.203344,94.6096408 C266.020231,94.8130994 265.781171,94.9758639 265.486156,95.0979391 C265.19114,95.2200143 264.880871,95.281051 264.555337,95.281051 C263.721156,95.281051 263.034494,94.9402629 262.495328,94.2586764 C261.956163,93.5770899 261.686584,92.6869716 261.686584,91.5882948 C261.686584,89.1264451 262.892059,87.0715434 265.303044,85.4235283 C267.714029,83.7755132 271.035442,82.7684079 275.267382,82.4021824 C276.325367,82.3207989 277.830938,82.2292439 279.784141,82.1275145 C285.847209,81.8426724 288.878698,80.4184832 288.878698,77.8549041 C288.878698,76.8172649 288.507391,75.9932697 287.764767,75.3828938 C287.022143,74.7725178 285.999779,74.4673344 284.697643,74.4673344 C284.453493,74.4673344 283.975372,74.4978527 283.263267,74.5588903 C283.039462,74.5792362 282.866525,74.589409 282.74445,74.589409 C282.74445,74.5283714 282.713932,74.314743 282.652894,73.9485174 C282.591856,73.5822918 282.561338,73.297454 282.561338,73.0939953 C282.561338,72.1377396 282.886867,71.3900403 283.537935,70.8508748 C284.189002,70.3117094 285.09438,70.0421307 286.254094,70.0421307 C288.024184,70.0421307 289.499238,70.7033614 290.679298,72.0258427 C291.859358,73.348324 292.449379,75.0370055 292.449379,77.0919379 C292.449379,80.1641637 291.376151,82.7327907 289.229662,84.7978961 C287.083173,86.8630014 284.3823,87.8955386 281.126962,87.8955386 C281.025232,87.8955386 280.857381,87.8853659 280.623404,87.86502 C280.389427,87.8446741 280.20123,87.8345014 280.058809,87.8345014 Z M23.7885424,75.9479325 C26.4640171,75.9479325 29.1561731,75.0317914 31.8650912,73.1994817 C34.5740093,71.367172 37.2327224,68.9750258 39.8413102,66.0229712 C42.4498981,63.0709167 44.9581179,59.7965605 47.3660451,56.1998044 C49.7739724,52.6030483 52.0146488,49.0063461 54.0881417,45.40959 C52.0146488,44.7988201 50.0415158,44.2559217 48.1686835,43.7808784 C46.2958513,43.3058352 44.3896042,42.830799 42.449885,42.3557558 C42.1154507,43.3737056 41.7141355,44.2559156 41.2459274,45.0024121 C39.6406426,47.3776284 37.6006238,48.9384614 35.1258097,49.684958 C32.7847693,50.4314545 30.9955725,50.6011103 29.7581655,50.1939304 C28.5207584,49.7867504 27.6679637,49.3456454 27.1997556,48.8706022 C25.995792,47.7169257 25.6948056,46.1221615 26.2967874,44.0862619 C26.6981086,42.7289954 27.5509034,41.4905084 28.8551973,40.3707635 C30.1594912,39.2510187 31.7145875,38.4197055 33.5205329,37.8767989 C34.7913834,37.469619 36.5638588,37.4017567 38.8380123,37.6732099 C38.5704648,36.5195335 37.9517705,35.3489087 36.981911,34.1613006 C36.0120514,32.9736924 34.6576127,32.3459661 32.9185541,32.2781028 C29.975532,32.2102394 27.3837048,32.9227936 25.1429947,34.4157867 C22.9022847,35.9087798 21.012759,37.8258899 19.4743611,40.1671746 C17.9359631,42.5084592 16.7320176,45.0532956 15.8624883,47.8017602 C14.992959,50.5502248 14.4244292,53.1459579 14.1568817,55.5890375 C13.9562211,57.5570739 13.8726138,59.7286676 13.9060572,62.1038839 C13.9395007,64.4791002 14.2572085,66.6846251 14.8591903,68.7205248 C15.4611721,70.7564245 16.4644601,72.4699477 17.8690843,73.8611458 C19.2737085,75.2523439 21.2468415,75.9479325 23.7885424,75.9479325 Z M60.0075998,42.7629337 C62.6830745,43.5094302 65.3417876,44.2898467 67.9838188,45.1042066 C70.6258501,45.9185665 73.2845631,46.698983 75.9600378,47.4454795 C77.8328701,42.5593203 79.588624,37.9107524 81.2273523,33.4996365 C82.8660805,29.0885205 84.1870763,25.0507134 85.1903793,21.3860939 C85.6585874,19.7573742 86.0933455,18.1965412 86.4946667,16.7035481 C86.8959879,15.210555 87.1969743,13.9042056 87.3976349,12.7844608 C87.5982955,11.664716 87.6484599,10.7316093 87.5481296,9.98511274 C87.4477993,9.2386162 87.0966485,8.79751122 86.4946667,8.66178457 C85.5582506,8.39033128 84.4379123,8.74660838 83.1336184,9.73062656 C81.8293245,10.7146447 80.4079999,12.0888564 78.869602,13.8533028 C77.331204,15.6177492 75.7092218,17.7045151 74.0036067,20.113663 C72.2979916,22.522811 70.6091236,25.0337162 68.9369519,27.6464542 C67.2647802,30.2591921 65.6595195,32.8718908 64.1211216,35.4846287 C62.5827236,38.0973667 61.2115634,40.523444 60.0075998,42.7629337 Z M211.906915,26.3740232 C211.906915,26.9169298 211.371828,27.188379 210.301638,27.188379 C209.231449,27.188379 208.077667,26.9338954 206.84026,26.4249205 C205.602853,25.9159455 204.449072,25.1015979 203.378882,23.9818531 C202.308692,22.8621082 201.773606,21.4539654 201.773606,19.7573823 C201.773606,19.2823391 201.974263,18.6546128 202.375584,17.8741846 C202.776906,17.0937563 203.228385,16.2624431 203.730037,15.3802199 C204.231688,14.4979967 204.683168,13.6836491 205.084489,12.9371525 C205.48581,12.190656 205.686468,11.6138264 205.686468,11.2066464 C205.686468,10.7316032 206.188112,10.4940851 207.191415,10.4940851 C208.194718,10.4940851 209.315056,10.7655343 210.552463,11.3084409 C211.78987,11.8513475 212.910208,12.6656952 213.913511,13.7515083 C214.916814,14.8373215 215.418458,16.2284987 215.418458,17.9250818 C215.418458,18.3322617 215.234522,18.9090913 214.866644,19.6555879 C214.498767,20.4020844 214.097451,21.1825009 213.662687,21.9968608 C213.227922,22.8112207 212.826607,23.6255683 212.458729,24.4399282 C212.090851,25.2542881 211.906915,25.89898 211.906915,26.3740232 Z" id="Title" fill="#60CFC8"></path>
    </g>
</svg>